<svg id="Capa_1" data-name="Capa 1" xmlns="http://www.w3.org/2000/svg" xmlns:xlink="http://www.w3.org/1999/xlink" viewBox="0 0 438.05 381.8"><defs><style>.cls-1{fill:none;}.cls-2{clip-path:url(#clip-path);}.cls-3{fill:#616160;}.cls-4{fill:#fff;}.cls-5{clip-path:url(#clip-path-2);}.cls-6{fill:#00a7d2;}.cls-7{fill:#0aa8d3;}.cls-8{fill:#14aad4;}.cls-9{fill:#1cabd5;}.cls-10{fill:#22acd6;}.cls-11{fill:#27add8;}.cls-12{fill:#2baed9;}.cls-13{fill:#30afda;}.cls-14{fill:#34b0db;}.cls-15{fill:#38b2dd;}.cls-16{fill:#3bb3de;}.cls-17{fill:#3fb4df;}.cls-18{fill:#42b5e0;}.cls-19{fill:#45b6e2;}.cls-20{fill:#48b8e3;}.cls-21{fill:#58267c;}.cls-22{fill:#fec812;}.cls-23{fill:#449f35;}.cls-24{fill:#43a035;}.cls-25{fill:#6cb967;}.cls-26{fill:#fec712;}.cls-27{fill:#0098ba;}</style><clipPath id="clip-path"><polygon class="cls-1" points="262.87 479.58 175.19 479.58 131.35 555.51 175.19 631.44 262.87 631.44 306.7 555.51 262.87 479.58"/></clipPath><clipPath id="clip-path-2"><polygon class="cls-1" points="262.87 73.63 175.19 73.63 131.35 149.56 175.19 225.49 262.87 225.49 306.7 149.56 262.87 73.63"/></clipPath></defs><g class="cls-2"><circle cx="209.32" cy="367.25" r="1.42"/><circle cx="196.85" cy="381.09" r="1.84"/><circle cx="227.45" cy="383.59" r="6.79"/><circle cx="213.61" cy="371.12" r="7.2"/><circle cx="229.17" cy="343.94" r="1.6"/><circle cx="213.69" cy="358.02" r="2.06"/><circle cx="198.2" cy="372.1" r="2.53"/><circle cx="261.69" cy="379.72" r="7.16"/><circle cx="247.62" cy="364.23" r="7.63"/><circle cx="233.54" cy="348.75" r="8.09"/><circle cx="253.97" cy="320.1" r="1.8"/><circle cx="235.08" cy="334.11" r="2.32"/><circle cx="216.2" cy="348.12" r="2.84"/><circle cx="197.31" cy="362.13" r="3.36"/><circle cx="178.42" cy="376.15" r="3.88"/><circle cx="300.35" cy="382.61" r="7.53"/><circle cx="286.34" cy="363.73" r="8.05"/><circle cx="272.33" cy="344.84" r="8.57"/><circle cx="258.31" cy="325.95" r="9.09"/><circle cx="284.36" cy="296.21" r="2.02"/><circle cx="261.68" cy="309.76" r="2.61"/><circle cx="239" cy="323.32" r="3.19"/><circle cx="216.32" cy="336.88" r="3.78"/><circle cx="193.64" cy="350.44" r="4.36"/><circle cx="170.96" cy="364" r="4.95"/><circle cx="148.28" cy="377.55" r="5.53"/><circle cx="329.23" cy="371.28" r="8.46"/><circle cx="315.67" cy="348.6" r="9.04"/><circle cx="302.12" cy="325.92" r="9.63"/><circle cx="288.56" cy="303.24" r="10.21"/><circle cx="320.99" cy="272.88" r="2.27"/><circle cx="294.12" cy="285.51" r="2.93"/><circle cx="267.25" cy="298.14" r="3.59"/><circle cx="240.38" cy="310.77" r="4.24"/><circle cx="213.52" cy="323.39" r="4.9"/><circle cx="186.65" cy="336.02" r="5.56"/><circle cx="159.78" cy="348.65" r="6.21"/><circle cx="132.91" cy="361.28" r="6.87"/><circle cx="106.04" cy="373.9" r="7.53"/><circle cx="79.17" cy="386.53" r="8.19"/><circle cx="375.42" cy="388.69" r="8.84"/><circle cx="362.79" cy="361.82" r="9.5"/><circle cx="350.16" cy="334.95" r="10.16"/><circle cx="337.54" cy="308.08" r="10.82"/><circle cx="324.91" cy="281.22" r="11.47"/><circle cx="364.56" cy="250.9" r="2.55"/><circle cx="333.11" cy="262.02" r="3.29"/><circle cx="301.66" cy="273.14" r="4.03"/><circle cx="270.21" cy="284.26" r="4.77"/><circle cx="238.76" cy="295.38" r="5.51"/><circle cx="207.31" cy="306.49" r="6.24"/><circle cx="175.86" cy="317.61" r="6.98"/><circle cx="144.41" cy="328.73" r="7.72"/><circle cx="112.96" cy="339.85" r="8.46"/><circle cx="81.51" cy="350.97" r="9.2"/><circle cx="50.06" cy="362.09" r="9.94"/><circle cx="18.61" cy="373.21" r="10.68"/><circle cx="412.48" cy="386.45" r="9.94"/><circle cx="401.36" cy="355" r="10.68"/><circle cx="390.24" cy="323.55" r="11.42"/><circle cx="379.13" cy="292.1" r="12.15"/><circle cx="368.01" cy="260.65" r="12.89"/><circle cx="415.72" cy="231.18" r="2.87"/><circle cx="379.32" cy="240.1" r="3.7"/><circle cx="342.91" cy="249.02" r="4.53"/><circle cx="306.51" cy="257.94" r="5.36"/><circle cx="270.11" cy="266.87" r="6.19"/><circle cx="233.7" cy="275.79" r="7.02"/><circle cx="197.3" cy="284.71" r="7.85"/><circle cx="160.9" cy="293.63" r="8.68"/><circle cx="124.49" cy="302.55" r="9.51"/><circle cx="88.09" cy="311.48" r="10.34"/><circle cx="51.69" cy="320.4" r="11.17"/><circle cx="15.28" cy="329.32" r="12"/><circle cx="445.25" cy="351.67" r="12"/><circle cx="436.33" cy="315.27" r="12.83"/><circle cx="427.41" cy="278.87" r="13.66"/><circle cx="418.49" cy="242.46" r="14.49"/><circle cx="433.42" cy="220.75" r="4.15"/><circle cx="391.73" cy="226.67" r="5.09"/><circle cx="350.03" cy="232.58" r="6.02"/><circle cx="308.34" cy="238.49" r="6.95"/><circle cx="266.64" cy="244.4" r="7.88"/><circle cx="224.94" cy="250.32" r="8.82"/><circle cx="183.25" cy="256.23" r="9.75"/><circle cx="141.55" cy="262.14" r="10.68"/><circle cx="99.86" cy="268.06" r="11.61"/><circle cx="58.16" cy="273.97" r="12.55"/><circle cx="16.46" cy="279.88" r="13.48"/><circle cx="401.52" cy="209.07" r="6.76"/><circle cx="354.25" cy="211.03" r="7.81"/><circle cx="306.97" cy="212.99" r="8.86"/><circle cx="259.69" cy="214.95" r="9.91"/><circle cx="212.41" cy="216.91" r="10.95"/><circle cx="165.14" cy="218.86" r="12"/><circle cx="117.86" cy="220.82" r="13.05"/><circle cx="70.58" cy="222.78" r="14.1"/><circle cx="23.3" cy="224.74" r="15.15"/></g><path class="cls-3" d="M111,299.06v-1.44a.68.68,0,1,0-1.36,0v1.19a4.24,4.24,0,0,0,.55,1.68l1.54,2.88a4.08,4.08,0,0,1,.57,2v1.59a1.6,1.6,0,0,1-1.61,1.59h-.8a1.63,1.63,0,0,1-1.55-1.59v-1.28a.74.74,0,0,1,.36-.7l.94-.41v2.17a.67.67,0,0,0,.68.68.68.68,0,0,0,.68-.69v-1.43a4.26,4.26,0,0,0-.56-1.69l-1.53-2.87a4.05,4.05,0,0,1-.57-2v-1.28a1.65,1.65,0,0,1,1.6-1.66h.81a1.66,1.66,0,0,1,1.55,1.66v.48a.73.73,0,0,1-.36.69C111.78,298.69,111.28,298.92,111,299.06Z"/><path class="cls-3" d="M121.47,295.8a1.61,1.61,0,0,1,1.56,1.59V307a1.62,1.62,0,0,1-1.56,1.57h-1a1.62,1.62,0,0,1-1.6-1.57v-9.57a1.59,1.59,0,0,1,1.6-1.59Zm-.42,11.6a.67.67,0,0,0,.67-.69v-9.09a.68.68,0,0,0-.67-.7h-.2a.71.71,0,0,0-.68.7v9.09a.71.71,0,0,0,.68.69Z"/><path class="cls-3" d="M134.23,307.13c-.14.33-.36.82-.41.93a.72.72,0,0,1-.69.34h-3.07V295.92H131a.41.41,0,0,1,.39.4v10.81Z"/><path class="cls-3" d="M143.49,306.94a1.52,1.52,0,0,1-1.53,1.51v0h-1a1.54,1.54,0,0,1-1.58-1.53V296.28a.37.37,0,0,1,.37-.36h.91v10.79a.66.66,0,0,0,.66.67h.19a.67.67,0,0,0,.68-.67V295.92h1.28Z"/><path class="cls-3" d="M154.13,306.94a1.6,1.6,0,0,1-1.53,1.59h-.79a1.6,1.6,0,0,1-1.6-1.59v-9.55a1.59,1.59,0,0,1,1.6-1.59h.79a1.58,1.58,0,0,1,1.53,1.59v1.9a.68.68,0,0,1-.34.68l-.93.43v-2.8a.69.69,0,0,0-1.37,0v9.11a.69.69,0,1,0,1.37,0V305a.72.72,0,0,1,.34-.69c.11-.06.61-.27.93-.41Z"/><path class="cls-3" d="M162.06,295.92a.49.49,0,0,1,.51.5v12h-.9c-.31,0-.36-.18-.38-.27V295.92Z"/><path class="cls-3" d="M172.25,295.8a1.61,1.61,0,0,1,1.55,1.59V307a1.62,1.62,0,0,1-1.55,1.57h-1a1.62,1.62,0,0,1-1.61-1.57v-9.57a1.6,1.6,0,0,1,1.61-1.59Zm-.43,11.6a.68.68,0,0,0,.68-.69v-9.09a.69.69,0,0,0-.68-.7h-.2a.7.7,0,0,0-.67.7v9.09a.7.7,0,0,0,.67.69Z"/><path class="cls-3" d="M184.47,308.4h-.59a.83.83,0,0,1-.85-.8l-1.38-6.17v7h-1.28V295.92H181c.71,0,.84.34.91.7l1.32,6.49v-7.19h1.28Z"/><path class="cls-3" d="M195.62,307.13c-.14.33-.35.82-.41.93a.72.72,0,0,1-.69.34h-2.85V296.28a.38.38,0,0,1,.39-.36h3.33l-.43.93a.67.67,0,0,1-.67.36h-1a.28.28,0,0,0-.3.3v3.71h1.92c-.14.32-.35.84-.41.94a.67.67,0,0,1-.67.34h-.54a.31.31,0,0,0-.3.3v4.33Z"/><path class="cls-3" d="M204.48,299.06v-1.44a.68.68,0,1,0-1.36,0v1.19a4.24,4.24,0,0,0,.55,1.68l1.54,2.88a4.08,4.08,0,0,1,.57,2v1.59a1.6,1.6,0,0,1-1.61,1.59h-.8a1.63,1.63,0,0,1-1.55-1.59v-1.28a.74.74,0,0,1,.36-.7l.94-.41v2.17a.68.68,0,1,0,1.36,0v-1.43a4.26,4.26,0,0,0-.56-1.69l-1.53-2.87a4.05,4.05,0,0,1-.57-2v-1.28a1.65,1.65,0,0,1,1.61-1.66h.8a1.66,1.66,0,0,1,1.55,1.66v.48a.73.73,0,0,1-.36.69C205.31,298.69,204.82,298.92,204.48,299.06Z"/><path class="cls-3" d="M224.41,295.92a.49.49,0,0,1,.52.5v12H224c-.3,0-.36-.18-.37-.27V295.92Z"/><path class="cls-3" d="M236.14,308.4h-.59a.83.83,0,0,1-.86-.8l-1.37-6.17v7H232V295.92h.58c.72,0,.84.34.91.7l1.32,6.49v-7.19h1.29Z"/><path class="cls-3" d="M246.86,296.85a.68.68,0,0,1-.68.34h-1a.34.34,0,0,0-.33.3V308.4H244c-.3,0-.35-.18-.35-.27V297.19h-1.8v-.87a.4.4,0,0,1,.39-.4h5.1Z"/><path class="cls-3" d="M257.09,307.13c-.15.33-.36.82-.41.93a.74.74,0,0,1-.7.34h-2.85V296.28a.39.39,0,0,1,.39-.36h3.33l-.42.93a.69.69,0,0,1-.68.36h-1a.29.29,0,0,0-.31.3v3.71h1.93c-.14.32-.36.84-.41.94a.7.7,0,0,1-.68.34h-.53a.32.32,0,0,0-.31.3v4.33Z"/><path class="cls-3" d="M267.22,299.33a.68.68,0,0,1-.35.69c-.09.06-.59.29-.93.43V297.6a.68.68,0,1,0-1.35,0v9.12a.68.68,0,1,0,1.35,0V303h-.05c-.29,0-.47-.41-.47-.41l-.43-.89h1.61c.39,0,.62.21.62.69v4.55a1.61,1.61,0,0,1-1.55,1.59h-.78a1.6,1.6,0,0,1-1.59-1.59v-9.55a1.59,1.59,0,0,1,1.59-1.59h.78a1.61,1.61,0,0,1,1.55,1.59Z"/><path class="cls-3" d="M276.59,308.4v-4.56c0-.61-.32-.8-.66-.8h-.67v5.36H274V295.92h2.34a1.58,1.58,0,0,1,1.57,1.57v3.85s.05,1-.47,1.11c.5.25.47,1.17.47,1.17v4.78Zm-.66-6.58c.34,0,.66-.14.66-.71v-3.35a.6.6,0,0,0-.66-.64h-.67v4.7Z"/><path class="cls-3" d="M288.87,308.4h-1.41l-1.12-8.59-1.12,8.59h-1.41l1.89-12.48h.69c.54,0,.63.34.68.68Z"/><path class="cls-3" d="M299.2,307.13c-.14.33-.35.82-.41.93a.72.72,0,0,1-.69.34H295V295.92h.89a.41.41,0,0,1,.4.4v10.81Z"/><path class="cls-3" d="M308.93,307.13c-.14.33-.36.82-.41.93a.74.74,0,0,1-.7.34H305V296.28a.39.39,0,0,1,.39-.36h3.34l-.43.93a.69.69,0,0,1-.68.36h-1a.28.28,0,0,0-.3.3v3.71h1.92c-.14.32-.36.84-.41.94a.7.7,0,0,1-.68.34h-.53a.31.31,0,0,0-.3.3v4.33Z"/><path class="cls-3" d="M317.78,299.06v-1.44a.68.68,0,1,0-1.35,0v1.19a4.24,4.24,0,0,0,.55,1.68l1.53,2.88a3.94,3.94,0,0,1,.57,2v1.59a1.6,1.6,0,0,1-1.6,1.59h-.8a1.62,1.62,0,0,1-1.55-1.59v-1.28a.74.74,0,0,1,.35-.7l.95-.41v2.17a.68.68,0,1,0,1.35,0v-1.43a4.31,4.31,0,0,0-.55-1.69l-1.53-2.87a3.92,3.92,0,0,1-.57-2v-1.28a1.65,1.65,0,0,1,1.6-1.66h.8a1.66,1.66,0,0,1,1.55,1.66v.48a.72.72,0,0,1-.35.69C318.62,298.69,318.12,298.92,317.78,299.06Z"/><path class="cls-4" d="M308.33,147.34l-42.73-74a4.42,4.42,0,0,0-3.84-2.22H176.3a4.44,4.44,0,0,0-3.85,2.22l-42.73,74a4.46,4.46,0,0,0,0,4.44l42.73,74A4.46,4.46,0,0,0,176.3,228h85.46a4.44,4.44,0,0,0,3.84-2.22l42.73-74A4.46,4.46,0,0,0,308.33,147.34Zm-63.37,4-25.3,24.21a1.71,1.71,0,0,1-2.41,0L193,150.19a1.71,1.71,0,0,1,.05-2.41l25.3-24.21a1.71,1.71,0,0,1,2.41.05L245,148.92A1.71,1.71,0,0,1,245,151.33Z"/><g class="cls-5"><circle class="cls-6" cx="217.34" cy="181.69" r="0.25"/><circle class="cls-7" cx="219.75" cy="179.51" r="0.32"/><circle class="cls-8" cx="222.17" cy="177.32" r="0.39"/><circle class="cls-9" cx="224.59" cy="175.14" r="0.46"/><circle class="cls-10" cx="227.01" cy="172.95" r="0.54"/><circle class="cls-11" cx="229.42" cy="170.77" r="0.61"/><circle class="cls-12" cx="231.84" cy="168.58" r="0.68"/><circle class="cls-13" cx="234.26" cy="166.4" r="0.75"/><circle class="cls-14" cx="236.67" cy="164.21" r="0.82"/><circle class="cls-15" cx="239.09" cy="162.03" r="0.89"/><circle class="cls-16" cx="241.51" cy="159.84" r="0.97"/><circle class="cls-17" cx="243.92" cy="157.66" r="1.04"/><circle class="cls-18" cx="246.34" cy="155.47" r="1.11"/><circle class="cls-19" cx="248.76" cy="153.29" r="1.18"/><circle class="cls-20" cx="251.18" cy="151.1" r="1.25"/><circle class="cls-21" cx="186.28" cy="148.65" r="0.25"/><circle class="cls-21" cx="188.52" cy="151.01" r="0.32"/><circle class="cls-21" cx="190.75" cy="153.36" r="0.39"/><circle class="cls-21" cx="192.98" cy="155.71" r="0.46"/><circle class="cls-21" cx="195.21" cy="158.07" r="0.54"/><circle class="cls-21" cx="197.44" cy="160.42" r="0.61"/><circle class="cls-21" cx="199.67" cy="162.77" r="0.68"/><circle class="cls-21" cx="201.9" cy="165.13" r="0.75"/><circle class="cls-21" cx="204.14" cy="167.48" r="0.82"/><circle class="cls-21" cx="206.37" cy="169.84" r="0.89"/><circle class="cls-21" cx="208.6" cy="172.19" r="0.97"/><circle class="cls-21" cx="210.83" cy="174.54" r="1.04"/><circle class="cls-21" cx="213.06" cy="176.9" r="1.11"/><circle class="cls-21" cx="215.29" cy="179.25" r="1.18"/><circle class="cls-21" cx="217.52" cy="181.61" r="1.25"/><circle class="cls-22" cx="219.97" cy="116.72" r="0.25"/><circle class="cls-22" cx="217.61" cy="118.95" r="0.32"/><circle class="cls-22" cx="215.26" cy="121.18" r="0.39"/><circle class="cls-22" cx="212.91" cy="123.41" r="0.46"/><circle class="cls-22" cx="210.55" cy="125.65" r="0.54"/><circle class="cls-22" cx="208.2" cy="127.88" r="0.61"/><circle class="cls-22" cx="205.84" cy="130.11" r="0.68"/><circle class="cls-22" cx="203.49" cy="132.34" r="0.75"/><circle class="cls-22" cx="201.14" cy="134.57" r="0.82"/><circle class="cls-22" cx="198.78" cy="136.8" r="0.89"/><circle class="cls-22" cx="196.43" cy="139.03" r="0.97"/><circle class="cls-22" cx="194.07" cy="141.27" r="1.04"/><circle class="cls-22" cx="191.72" cy="143.5" r="1.11"/><circle class="cls-22" cx="189.37" cy="145.73" r="1.18"/><circle class="cls-22" cx="187.01" cy="147.96" r="1.25"/><circle class="cls-23" cx="251.9" cy="150.4" r="0.25"/><circle class="cls-23" cx="249.67" cy="148.05" r="0.32"/><circle class="cls-23" cx="247.44" cy="145.7" r="0.39"/><circle class="cls-23" cx="245.2" cy="143.34" r="0.46"/><circle class="cls-23" cx="242.97" cy="140.99" r="0.54"/><circle class="cls-23" cx="240.74" cy="138.63" r="0.61"/><circle class="cls-23" cx="238.51" cy="136.28" r="0.68"/><circle class="cls-24" cx="236.28" cy="133.93" r="0.75"/><circle class="cls-24" cx="234.05" cy="131.57" r="0.82"/><circle class="cls-24" cx="231.82" cy="129.22" r="0.89"/><circle class="cls-24" cx="229.58" cy="126.87" r="0.97"/><circle class="cls-24" cx="227.35" cy="124.51" r="1.04"/><circle class="cls-24" cx="225.12" cy="122.16" r="1.11"/><circle class="cls-24" cx="222.89" cy="119.8" r="1.18"/><circle class="cls-24" cx="220.66" cy="117.45" r="1.25"/><circle class="cls-6" cx="213.54" cy="185.3" r="0.28"/><circle class="cls-7" cx="216.49" cy="183.12" r="0.36"/><circle class="cls-8" cx="219.43" cy="180.95" r="0.44"/><circle class="cls-9" cx="222.38" cy="178.78" r="0.52"/><circle class="cls-10" cx="225.33" cy="176.6" r="0.6"/><circle class="cls-11" cx="228.27" cy="174.43" r="0.68"/><circle class="cls-12" cx="231.22" cy="172.26" r="0.76"/><circle class="cls-13" cx="234.16" cy="170.08" r="0.84"/><circle class="cls-14" cx="237.11" cy="167.91" r="0.92"/><circle class="cls-15" cx="240.06" cy="165.74" r="1.01"/><circle class="cls-16" cx="243" cy="163.56" r="1.09"/><circle class="cls-17" cx="245.95" cy="161.39" r="1.17"/><circle class="cls-18" cx="248.89" cy="159.22" r="1.25"/><circle class="cls-19" cx="251.84" cy="157.04" r="1.33"/><circle class="cls-20" cx="254.79" cy="154.87" r="1.41"/><circle class="cls-21" cx="182.51" cy="144.89" r="0.28"/><circle class="cls-21" cx="184.74" cy="147.77" r="0.36"/><circle class="cls-21" cx="186.97" cy="150.65" r="0.44"/><circle class="cls-21" cx="189.21" cy="153.53" r="0.52"/><circle class="cls-21" cx="191.44" cy="156.41" r="0.6"/><circle class="cls-21" cx="193.67" cy="159.29" r="0.68"/><circle class="cls-21" cx="195.9" cy="162.17" r="0.76"/><circle class="cls-21" cx="198.13" cy="165.05" r="0.84"/><circle class="cls-21" cx="200.37" cy="167.93" r="0.92"/><circle class="cls-21" cx="202.6" cy="170.81" r="1.01"/><circle class="cls-21" cx="204.83" cy="173.69" r="1.09"/><circle class="cls-21" cx="207.06" cy="176.57" r="1.17"/><circle class="cls-21" cx="209.29" cy="179.46" r="1.25"/><circle class="cls-21" cx="211.53" cy="182.34" r="1.33"/><circle class="cls-21" cx="213.76" cy="185.22" r="1.41"/><circle class="cls-22" cx="223.73" cy="112.95" r="0.28"/><circle class="cls-22" cx="220.85" cy="115.18" r="0.36"/><circle class="cls-22" cx="217.97" cy="117.41" r="0.44"/><circle class="cls-22" cx="215.09" cy="119.64" r="0.52"/><circle class="cls-22" cx="212.21" cy="121.87" r="0.6"/><circle class="cls-22" cx="209.33" cy="124.11" r="0.68"/><circle class="cls-22" cx="206.45" cy="126.34" r="0.76"/><circle class="cls-22" cx="203.57" cy="128.57" r="0.84"/><circle class="cls-22" cx="200.69" cy="130.8" r="0.92"/><circle class="cls-22" cx="197.81" cy="133.03" r="1.01"/><circle class="cls-22" cx="194.92" cy="135.27" r="1.09"/><circle class="cls-22" cx="192.04" cy="137.5" r="1.17"/><circle class="cls-22" cx="189.16" cy="139.73" r="1.25"/><circle class="cls-22" cx="186.28" cy="141.96" r="1.33"/><circle class="cls-22" cx="183.4" cy="144.2" r="1.41"/><circle class="cls-23" cx="255.67" cy="154.17" r="0.28"/><circle class="cls-23" cx="253.44" cy="151.29" r="0.36"/><circle class="cls-23" cx="251.21" cy="148.41" r="0.44"/><circle class="cls-23" cx="248.98" cy="145.53" r="0.52"/><circle class="cls-23" cx="246.74" cy="142.65" r="0.6"/><circle class="cls-23" cx="244.51" cy="139.76" r="0.68"/><circle class="cls-23" cx="242.28" cy="136.88" r="0.76"/><circle class="cls-24" cx="240.05" cy="134" r="0.84"/><circle class="cls-24" cx="237.82" cy="131.12" r="0.92"/><circle class="cls-24" cx="235.58" cy="128.24" r="1.01"/><circle class="cls-24" cx="233.35" cy="125.36" r="1.09"/><circle class="cls-24" cx="231.12" cy="122.48" r="1.17"/><circle class="cls-24" cx="228.89" cy="119.6" r="1.25"/><circle class="cls-24" cx="226.66" cy="116.72" r="1.33"/><circle class="cls-24" cx="224.42" cy="113.84" r="1.41"/><circle class="cls-6" cx="208.89" cy="188.9" r="0.31"/><circle class="cls-7" cx="212.43" cy="186.8" r="0.4"/><circle class="cls-8" cx="215.97" cy="184.7" r="0.49"/><circle class="cls-9" cx="219.5" cy="182.59" r="0.59"/><circle class="cls-10" cx="223.04" cy="180.49" r="0.68"/><circle class="cls-11" cx="226.58" cy="178.39" r="0.77"/><circle class="cls-12" cx="230.11" cy="176.29" r="0.86"/><circle class="cls-13" cx="233.65" cy="174.19" r="0.95"/><circle class="cls-14" cx="237.19" cy="172.09" r="1.04"/><circle class="cls-15" cx="240.72" cy="169.99" r="1.13"/><circle class="cls-16" cx="244.26" cy="167.89" r="1.22"/><circle class="cls-17" cx="247.8" cy="165.79" r="1.31"/><circle class="cls-18" cx="251.33" cy="163.69" r="1.4"/><circle class="cls-19" cx="254.87" cy="161.58" r="1.49"/><circle class="cls-20" cx="258.4" cy="159.48" r="1.58"/><circle class="cls-21" cx="178.71" cy="140.26" r="0.31"/><circle class="cls-21" cx="180.88" cy="143.73" r="0.4"/><circle class="cls-21" cx="183.06" cy="147.2" r="0.49"/><circle class="cls-21" cx="185.23" cy="150.67" r="0.59"/><circle class="cls-21" cx="187.41" cy="154.14" r="0.68"/><circle class="cls-21" cx="189.58" cy="157.61" r="0.77"/><circle class="cls-21" cx="191.75" cy="161.08" r="0.86"/><circle class="cls-21" cx="193.93" cy="164.55" r="0.95"/><circle class="cls-21" cx="196.1" cy="168.02" r="1.04"/><circle class="cls-21" cx="198.28" cy="171.49" r="1.13"/><circle class="cls-21" cx="200.45" cy="174.96" r="1.22"/><circle class="cls-21" cx="202.62" cy="178.43" r="1.31"/><circle class="cls-21" cx="204.8" cy="181.89" r="1.4"/><circle class="cls-21" cx="206.97" cy="185.36" r="1.49"/><circle class="cls-21" cx="209.15" cy="188.83" r="1.58"/><circle class="cls-22" cx="228.36" cy="109.15" r="0.31"/><circle class="cls-22" cx="224.89" cy="111.32" r="0.4"/><circle class="cls-22" cx="221.42" cy="113.49" r="0.49"/><circle class="cls-22" cx="217.95" cy="115.67" r="0.59"/><circle class="cls-22" cx="214.48" cy="117.84" r="0.68"/><circle class="cls-22" cx="211.01" cy="120.02" r="0.77"/><circle class="cls-22" cx="207.54" cy="122.19" r="0.86"/><circle class="cls-22" cx="204.07" cy="124.36" r="0.95"/><circle class="cls-22" cx="200.6" cy="126.54" r="1.04"/><circle class="cls-22" cx="197.13" cy="128.71" r="1.13"/><circle class="cls-22" cx="193.66" cy="130.89" r="1.22"/><circle class="cls-22" cx="190.19" cy="133.06" r="1.31"/><circle class="cls-22" cx="186.72" cy="135.24" r="1.4"/><circle class="cls-22" cx="183.25" cy="137.41" r="1.49"/><circle class="cls-22" cx="179.78" cy="139.58" r="1.58"/><circle class="cls-23" cx="259.47" cy="158.8" r="0.31"/><circle class="cls-23" cx="257.3" cy="155.33" r="0.4"/><circle class="cls-23" cx="255.13" cy="151.86" r="0.49"/><circle class="cls-23" cx="252.95" cy="148.39" r="0.59"/><circle class="cls-23" cx="250.78" cy="144.92" r="0.68"/><circle class="cls-23" cx="248.6" cy="141.45" r="0.77"/><circle class="cls-23" cx="246.43" cy="137.98" r="0.86"/><circle class="cls-24" cx="244.25" cy="134.51" r="0.95"/><circle class="cls-24" cx="242.08" cy="131.04" r="1.04"/><circle class="cls-24" cx="239.91" cy="127.57" r="1.13"/><circle class="cls-24" cx="237.73" cy="124.1" r="1.22"/><circle class="cls-24" cx="235.56" cy="120.63" r="1.31"/><circle class="cls-24" cx="233.38" cy="117.16" r="1.4"/><circle class="cls-24" cx="231.21" cy="113.69" r="1.49"/><circle class="cls-24" cx="229.04" cy="110.22" r="1.58"/><circle class="cls-6" cx="203.3" cy="192.41" r="0.35"/><circle class="cls-7" cx="207.49" cy="190.45" r="0.45"/><circle class="cls-8" cx="211.67" cy="188.5" r="0.56"/><circle class="cls-9" cx="215.86" cy="186.54" r="0.66"/><circle class="cls-10" cx="220.05" cy="184.59" r="0.76"/><circle class="cls-11" cx="224.24" cy="182.64" r="0.86"/><circle class="cls-12" cx="228.43" cy="180.68" r="0.96"/><circle class="cls-13" cx="232.62" cy="178.73" r="1.07"/><circle class="cls-14" cx="236.8" cy="176.77" r="1.17"/><circle class="cls-15" cx="240.99" cy="174.82" r="1.27"/><circle class="cls-16" cx="245.18" cy="172.86" r="1.37"/><circle class="cls-17" cx="249.37" cy="170.91" r="1.47"/><circle class="cls-18" cx="253.56" cy="168.95" r="1.57"/><circle class="cls-19" cx="257.75" cy="167" r="1.68"/><circle class="cls-20" cx="261.93" cy="165.05" r="1.78"/><circle class="cls-21" cx="174.98" cy="134.66" r="0.35"/><circle class="cls-21" cx="177.02" cy="138.78" r="0.45"/><circle class="cls-21" cx="179.06" cy="142.9" r="0.56"/><circle class="cls-21" cx="181.11" cy="147.02" r="0.66"/><circle class="cls-21" cx="183.15" cy="151.14" r="0.76"/><circle class="cls-21" cx="185.19" cy="155.27" r="0.86"/><circle class="cls-21" cx="187.24" cy="159.39" r="0.96"/><circle class="cls-21" cx="189.28" cy="163.51" r="1.07"/><circle class="cls-21" cx="191.32" cy="167.63" r="1.17"/><circle class="cls-21" cx="193.37" cy="171.75" r="1.27"/><circle class="cls-21" cx="195.41" cy="175.88" r="1.37"/><circle class="cls-21" cx="197.46" cy="180" r="1.47"/><circle class="cls-21" cx="199.5" cy="184.12" r="1.57"/><circle class="cls-21" cx="201.54" cy="188.24" r="1.68"/><circle class="cls-21" cx="203.59" cy="192.36" r="1.78"/><circle class="cls-22" cx="233.96" cy="105.41" r="0.35"/><circle class="cls-22" cx="229.84" cy="107.46" r="0.45"/><circle class="cls-22" cx="225.72" cy="109.5" r="0.56"/><circle class="cls-22" cx="221.6" cy="111.54" r="0.66"/><circle class="cls-22" cx="217.47" cy="113.59" r="0.76"/><circle class="cls-22" cx="213.35" cy="115.63" r="0.86"/><circle class="cls-22" cx="209.23" cy="117.67" r="0.96"/><circle class="cls-22" cx="205.11" cy="119.72" r="1.07"/><circle class="cls-22" cx="200.99" cy="121.76" r="1.17"/><circle class="cls-22" cx="196.86" cy="123.81" r="1.27"/><circle class="cls-22" cx="192.74" cy="125.85" r="1.37"/><circle class="cls-22" cx="188.62" cy="127.89" r="1.47"/><circle class="cls-22" cx="184.5" cy="129.94" r="1.57"/><circle class="cls-22" cx="180.38" cy="131.98" r="1.68"/><circle class="cls-22" cx="176.25" cy="134.02" r="1.78"/><circle class="cls-23" cx="263.21" cy="164.4" r="0.35"/><circle class="cls-23" cx="261.16" cy="160.28" r="0.45"/><circle class="cls-23" cx="259.12" cy="156.15" r="0.56"/><circle class="cls-23" cx="257.07" cy="152.03" r="0.66"/><circle class="cls-23" cx="255.03" cy="147.91" r="0.76"/><circle class="cls-23" cx="252.99" cy="143.79" r="0.86"/><circle class="cls-23" cx="250.94" cy="139.67" r="0.96"/><circle class="cls-24" cx="248.9" cy="135.54" r="1.07"/><circle class="cls-24" cx="246.86" cy="131.42" r="1.17"/><circle class="cls-24" cx="244.81" cy="127.3" r="1.27"/><circle class="cls-24" cx="242.77" cy="123.18" r="1.37"/><circle class="cls-24" cx="240.73" cy="119.06" r="1.47"/><circle class="cls-24" cx="238.68" cy="114.93" r="1.57"/><circle class="cls-24" cx="236.64" cy="110.81" r="1.68"/><circle class="cls-24" cx="234.6" cy="106.69" r="1.78"/><circle class="cls-6" cx="196.65" cy="195.71" r="0.4"/><circle class="cls-7" cx="201.55" cy="193.99" r="0.51"/><circle class="cls-8" cx="206.45" cy="192.27" r="0.62"/><circle class="cls-9" cx="211.35" cy="190.55" r="0.74"/><circle class="cls-10" cx="216.25" cy="188.84" r="0.85"/><circle class="cls-11" cx="221.15" cy="187.12" r="0.97"/><circle class="cls-12" cx="226.05" cy="185.4" r="1.08"/><circle class="cls-13" cx="230.95" cy="183.68" r="1.2"/><circle class="cls-14" cx="235.85" cy="181.96" r="1.31"/><circle class="cls-15" cx="240.76" cy="180.25" r="1.43"/><circle class="cls-16" cx="245.66" cy="178.53" r="1.54"/><circle class="cls-17" cx="250.56" cy="176.81" r="1.65"/><circle class="cls-18" cx="255.46" cy="175.09" r="1.77"/><circle class="cls-19" cx="260.36" cy="173.38" r="1.88"/><circle class="cls-20" cx="265.26" cy="171.66" r="2"/><circle class="cls-21" cx="171.43" cy="127.98" r="0.4"/><circle class="cls-21" cx="173.25" cy="132.81" r="0.51"/><circle class="cls-21" cx="175.08" cy="137.65" r="0.62"/><circle class="cls-21" cx="176.9" cy="142.49" r="0.74"/><circle class="cls-21" cx="178.73" cy="147.32" r="0.85"/><circle class="cls-21" cx="180.55" cy="152.16" r="0.97"/><circle class="cls-21" cx="182.38" cy="157" r="1.08"/><circle class="cls-21" cx="184.2" cy="161.83" r="1.2"/><circle class="cls-21" cx="186.03" cy="166.67" r="1.31"/><circle class="cls-21" cx="187.85" cy="171.51" r="1.43"/><circle class="cls-21" cx="189.68" cy="176.34" r="1.54"/><circle class="cls-21" cx="191.5" cy="181.18" r="1.65"/><circle class="cls-21" cx="193.33" cy="186.02" r="1.77"/><circle class="cls-21" cx="195.15" cy="190.85" r="1.88"/><circle class="cls-21" cx="196.98" cy="195.69" r="2"/><circle class="cls-22" cx="240.64" cy="101.87" r="0.4"/><circle class="cls-22" cx="235.8" cy="103.69" r="0.51"/><circle class="cls-22" cx="230.97" cy="105.51" r="0.62"/><circle class="cls-22" cx="226.13" cy="107.34" r="0.74"/><circle class="cls-22" cx="221.29" cy="109.16" r="0.85"/><circle class="cls-22" cx="216.46" cy="110.99" r="0.97"/><circle class="cls-22" cx="211.62" cy="112.81" r="1.08"/><circle class="cls-22" cx="206.78" cy="114.64" r="1.2"/><circle class="cls-22" cx="201.95" cy="116.46" r="1.31"/><circle class="cls-22" cx="197.11" cy="118.29" r="1.43"/><circle class="cls-22" cx="192.27" cy="120.11" r="1.54"/><circle class="cls-22" cx="187.44" cy="121.94" r="1.65"/><circle class="cls-22" cx="182.6" cy="123.76" r="1.77"/><circle class="cls-22" cx="177.76" cy="125.59" r="1.88"/><circle class="cls-22" cx="172.93" cy="127.41" r="2"/><circle class="cls-23" cx="266.75" cy="171.08" r="0.4"/><circle class="cls-23" cx="264.93" cy="166.24" r="0.51"/><circle class="cls-23" cx="263.1" cy="161.4" r="0.62"/><circle class="cls-23" cx="261.28" cy="156.57" r="0.74"/><circle class="cls-23" cx="259.45" cy="151.73" r="0.85"/><circle class="cls-23" cx="257.63" cy="146.89" r="0.97"/><circle class="cls-23" cx="255.8" cy="142.06" r="1.08"/><circle class="cls-24" cx="253.98" cy="137.22" r="1.2"/><circle class="cls-24" cx="252.15" cy="132.38" r="1.31"/><circle class="cls-24" cx="250.33" cy="127.55" r="1.43"/><circle class="cls-24" cx="248.51" cy="122.71" r="1.54"/><circle class="cls-24" cx="246.68" cy="117.87" r="1.65"/><circle class="cls-24" cx="244.86" cy="113.04" r="1.77"/><circle class="cls-24" cx="243.03" cy="108.2" r="1.88"/><circle class="cls-24" cx="241.21" cy="103.36" r="2"/><circle class="cls-6" cx="188.84" cy="198.65" r="0.44"/><circle class="cls-7" cx="194.52" cy="197.28" r="0.57"/><circle class="cls-8" cx="200.19" cy="195.91" r="0.7"/><circle class="cls-9" cx="205.86" cy="194.53" r="0.83"/><circle class="cls-10" cx="211.53" cy="193.16" r="0.96"/><circle class="cls-11" cx="217.2" cy="191.79" r="1.09"/><circle class="cls-12" cx="222.87" cy="190.41" r="1.22"/><circle class="cls-13" cx="228.54" cy="189.04" r="1.34"/><circle class="cls-14" cx="234.21" cy="187.66" r="1.47"/><circle class="cls-15" cx="239.88" cy="186.29" r="1.6"/><circle class="cls-16" cx="245.56" cy="184.92" r="1.73"/><circle class="cls-17" cx="251.23" cy="183.54" r="1.86"/><circle class="cls-18" cx="256.9" cy="182.17" r="1.99"/><circle class="cls-19" cx="262.57" cy="180.8" r="2.12"/><circle class="cls-20" cx="268.24" cy="179.42" r="2.24"/><circle class="cls-21" cx="168.21" cy="120.12" r="0.44"/><circle class="cls-21" cx="169.71" cy="125.73" r="0.57"/><circle class="cls-21" cx="171.21" cy="131.34" r="0.7"/><circle class="cls-21" cx="172.71" cy="136.95" r="0.83"/><circle class="cls-21" cx="174.21" cy="142.56" r="0.96"/><circle class="cls-21" cx="175.71" cy="148.17" r="1.09"/><circle class="cls-21" cx="177.21" cy="153.78" r="1.22"/><circle class="cls-21" cx="178.71" cy="159.39" r="1.34"/><circle class="cls-21" cx="180.21" cy="165" r="1.47"/><circle class="cls-21" cx="181.71" cy="170.62" r="1.6"/><circle class="cls-21" cx="183.21" cy="176.23" r="1.73"/><circle class="cls-21" cx="184.71" cy="181.84" r="1.86"/><circle class="cls-21" cx="186.21" cy="187.45" r="1.99"/><circle class="cls-21" cx="187.71" cy="193.06" r="2.12"/><circle class="cls-21" cx="189.21" cy="198.67" r="2.24"/><circle class="cls-22" cx="248.5" cy="98.64" r="0.44"/><circle class="cls-22" cx="242.89" cy="100.14" r="0.57"/><circle class="cls-22" cx="237.28" cy="101.64" r="0.7"/><circle class="cls-22" cx="231.67" cy="103.15" r="0.83"/><circle class="cls-22" cx="226.06" cy="104.65" r="0.96"/><circle class="cls-22" cx="220.45" cy="106.15" r="1.09"/><circle class="cls-22" cx="214.84" cy="107.65" r="1.22"/><circle class="cls-22" cx="209.22" cy="109.15" r="1.34"/><circle class="cls-22" cx="203.61" cy="110.65" r="1.47"/><circle class="cls-22" cx="198" cy="112.15" r="1.6"/><circle class="cls-22" cx="192.39" cy="113.65" r="1.73"/><circle class="cls-22" cx="186.78" cy="115.15" r="1.86"/><circle class="cls-22" cx="181.17" cy="116.65" r="1.99"/><circle class="cls-22" cx="175.56" cy="118.15" r="2.12"/><circle class="cls-22" cx="169.95" cy="119.65" r="2.24"/><circle class="cls-23" cx="269.97" cy="178.94" r="0.44"/><circle class="cls-23" cx="268.47" cy="173.33" r="0.57"/><circle class="cls-23" cx="266.97" cy="167.72" r="0.7"/><circle class="cls-23" cx="265.47" cy="162.11" r="0.83"/><circle class="cls-23" cx="263.97" cy="156.49" r="0.96"/><circle class="cls-23" cx="262.47" cy="150.88" r="1.09"/><circle class="cls-23" cx="260.97" cy="145.27" r="1.22"/><circle class="cls-24" cx="259.47" cy="139.66" r="1.34"/><circle class="cls-24" cx="257.97" cy="134.05" r="1.47"/><circle class="cls-24" cx="256.47" cy="128.44" r="1.6"/><circle class="cls-24" cx="254.97" cy="122.83" r="1.73"/><circle class="cls-24" cx="253.47" cy="117.22" r="1.86"/><circle class="cls-24" cx="251.97" cy="111.61" r="1.99"/><circle class="cls-24" cx="250.47" cy="105.99" r="2.12"/><circle class="cls-24" cx="248.97" cy="100.38" r="2.24"/><circle class="cls-6" cx="179.79" cy="201.08" r="0.5"/><circle class="cls-7" cx="186.29" cy="200.17" r="0.64"/><circle class="cls-8" cx="192.78" cy="199.27" r="0.79"/><circle class="cls-9" cx="199.27" cy="198.37" r="0.93"/><circle class="cls-10" cx="205.77" cy="197.46" r="1.08"/><circle class="cls-11" cx="212.26" cy="196.56" r="1.22"/><circle class="cls-12" cx="218.76" cy="195.66" r="1.37"/><circle class="cls-13" cx="225.25" cy="194.76" r="1.51"/><circle class="cls-14" cx="231.74" cy="193.85" r="1.66"/><circle class="cls-15" cx="238.24" cy="192.95" r="1.8"/><circle class="cls-16" cx="244.73" cy="192.05" r="1.94"/><circle class="cls-17" cx="251.22" cy="191.14" r="2.09"/><circle class="cls-18" cx="257.72" cy="190.24" r="2.23"/><circle class="cls-19" cx="264.21" cy="189.34" r="2.38"/><circle class="cls-20" cx="270.71" cy="188.44" r="2.52"/><circle class="cls-21" cx="165.48" cy="110.97" r="0.5"/><circle class="cls-21" cx="166.53" cy="117.41" r="0.64"/><circle class="cls-21" cx="167.59" cy="123.85" r="0.79"/><circle class="cls-21" cx="168.64" cy="130.29" r="0.93"/><circle class="cls-21" cx="169.69" cy="136.73" r="1.08"/><circle class="cls-21" cx="170.74" cy="143.17" r="1.22"/><circle class="cls-21" cx="171.79" cy="149.61" r="1.37"/><circle class="cls-21" cx="172.84" cy="156.05" r="1.51"/><circle class="cls-21" cx="173.89" cy="162.49" r="1.66"/><circle class="cls-21" cx="174.95" cy="168.93" r="1.8"/><circle class="cls-21" cx="176" cy="175.37" r="1.94"/><circle class="cls-21" cx="177.05" cy="181.82" r="2.09"/><circle class="cls-21" cx="178.1" cy="188.26" r="2.23"/><circle class="cls-21" cx="179.15" cy="194.7" r="2.38"/><circle class="cls-21" cx="180.2" cy="201.14" r="2.52"/><circle class="cls-22" cx="257.65" cy="95.92" r="0.5"/><circle class="cls-22" cx="251.21" cy="96.97" r="0.64"/><circle class="cls-22" cx="244.77" cy="98.02" r="0.79"/><circle class="cls-22" cx="238.33" cy="99.07" r="0.93"/><circle class="cls-22" cx="231.89" cy="100.13" r="1.08"/><circle class="cls-22" cx="225.45" cy="101.18" r="1.22"/><circle class="cls-22" cx="219.01" cy="102.23" r="1.37"/><circle class="cls-22" cx="212.57" cy="103.28" r="1.51"/><circle class="cls-22" cx="206.13" cy="104.33" r="1.66"/><circle class="cls-22" cx="199.68" cy="105.38" r="1.8"/><circle class="cls-22" cx="193.24" cy="106.43" r="1.94"/><circle class="cls-22" cx="186.8" cy="107.49" r="2.09"/><circle class="cls-22" cx="180.36" cy="108.54" r="2.23"/><circle class="cls-22" cx="173.92" cy="109.59" r="2.38"/><circle class="cls-22" cx="167.48" cy="110.64" r="2.52"/><circle class="cls-23" cx="272.7" cy="188.09" r="0.5"/><circle class="cls-23" cx="271.65" cy="181.65" r="0.64"/><circle class="cls-23" cx="270.6" cy="175.21" r="0.79"/><circle class="cls-23" cx="269.54" cy="168.77" r="0.93"/><circle class="cls-23" cx="268.49" cy="162.33" r="1.08"/><circle class="cls-23" cx="267.44" cy="155.89" r="1.22"/><circle class="cls-23" cx="266.39" cy="149.44" r="1.37"/><circle class="cls-24" cx="265.34" cy="143" r="1.51"/><circle class="cls-24" cx="264.29" cy="136.56" r="1.66"/><circle class="cls-24" cx="263.24" cy="130.12" r="1.8"/><circle class="cls-24" cx="262.18" cy="123.68" r="1.94"/><circle class="cls-24" cx="261.13" cy="117.24" r="2.09"/><circle class="cls-24" cx="260.08" cy="110.8" r="2.23"/><circle class="cls-24" cx="259.03" cy="104.36" r="2.38"/><circle class="cls-24" cx="257.98" cy="97.92" r="2.52"/><circle class="cls-6" cx="169.4" cy="202.78" r="0.56"/><circle class="cls-7" cx="176.76" cy="202.49" r="0.72"/><circle class="cls-8" cx="184.12" cy="202.21" r="0.89"/><circle class="cls-9" cx="191.48" cy="201.92" r="1.05"/><circle class="cls-10" cx="198.85" cy="201.64" r="1.21"/><circle class="cls-11" cx="206.21" cy="201.35" r="1.37"/><circle class="cls-12" cx="213.57" cy="201.07" r="1.54"/><circle class="cls-13" cx="220.93" cy="200.78" r="1.7"/><circle class="cls-14" cx="228.29" cy="200.5" r="1.86"/><circle class="cls-15" cx="235.65" cy="200.21" r="2.02"/><circle class="cls-16" cx="243.01" cy="199.93" r="2.18"/><circle class="cls-17" cx="250.37" cy="199.64" r="2.35"/><circle class="cls-18" cx="257.73" cy="199.36" r="2.51"/><circle class="cls-19" cx="265.09" cy="199.07" r="2.67"/><circle class="cls-20" cx="272.46" cy="198.79" r="2.83"/><circle class="cls-21" cx="163.46" cy="100.43" r="0.56"/><circle class="cls-21" cx="163.92" cy="107.75" r="0.72"/><circle class="cls-21" cx="164.37" cy="115.07" r="0.89"/><circle class="cls-21" cx="164.83" cy="122.39" r="1.05"/><circle class="cls-21" cx="165.29" cy="129.71" r="1.21"/><circle class="cls-21" cx="165.74" cy="137.02" r="1.37"/><circle class="cls-21" cx="166.2" cy="144.34" r="1.54"/><circle class="cls-21" cx="166.66" cy="151.66" r="1.7"/><circle class="cls-21" cx="167.11" cy="158.98" r="1.86"/><circle class="cls-21" cx="167.57" cy="166.3" r="2.02"/><circle class="cls-21" cx="168.03" cy="173.62" r="2.18"/><circle class="cls-21" cx="168.48" cy="180.94" r="2.35"/><circle class="cls-21" cx="168.94" cy="188.25" r="2.51"/><circle class="cls-21" cx="169.4" cy="195.57" r="2.67"/><circle class="cls-21" cx="169.85" cy="202.89" r="2.83"/><circle class="cls-22" cx="268.19" cy="93.9" r="0.56"/><circle class="cls-22" cx="260.87" cy="94.35" r="0.72"/><circle class="cls-22" cx="253.55" cy="94.81" r="0.89"/><circle class="cls-22" cx="246.23" cy="95.27" r="1.05"/><circle class="cls-22" cx="238.91" cy="95.72" r="1.21"/><circle class="cls-22" cx="231.59" cy="96.18" r="1.37"/><circle class="cls-22" cx="224.28" cy="96.64" r="1.54"/><circle class="cls-22" cx="216.96" cy="97.09" r="1.7"/><circle class="cls-22" cx="209.64" cy="97.55" r="1.86"/><circle class="cls-22" cx="202.32" cy="98.01" r="2.02"/><circle class="cls-22" cx="195" cy="98.46" r="2.18"/><circle class="cls-22" cx="187.68" cy="98.92" r="2.35"/><circle class="cls-22" cx="180.36" cy="99.38" r="2.51"/><circle class="cls-22" cx="173.05" cy="99.83" r="2.67"/><circle class="cls-22" cx="165.73" cy="100.29" r="2.83"/><circle class="cls-23" cx="274.72" cy="198.62" r="0.56"/><circle class="cls-23" cx="274.27" cy="191.31" r="0.72"/><circle class="cls-23" cx="273.81" cy="183.99" r="0.89"/><circle class="cls-23" cx="273.35" cy="176.67" r="1.05"/><circle class="cls-23" cx="272.9" cy="169.35" r="1.21"/><circle class="cls-23" cx="272.44" cy="162.03" r="1.37"/><circle class="cls-23" cx="271.98" cy="154.71" r="1.54"/><circle class="cls-24" cx="271.53" cy="147.39" r="1.7"/><circle class="cls-24" cx="271.07" cy="140.08" r="1.86"/><circle class="cls-24" cx="270.61" cy="132.76" r="2.02"/><circle class="cls-24" cx="270.16" cy="125.44" r="2.18"/><circle class="cls-24" cx="269.7" cy="118.12" r="2.35"/><circle class="cls-24" cx="269.24" cy="110.8" r="2.51"/><circle class="cls-24" cx="268.79" cy="103.48" r="2.67"/><circle class="cls-24" cx="268.33" cy="96.16" r="2.83"/><circle class="cls-6" cx="157.59" cy="203.52" r="0.63"/><circle class="cls-7" cx="165.86" cy="204.02" r="0.81"/><circle class="cls-8" cx="174.12" cy="204.52" r="0.99"/><circle class="cls-9" cx="182.38" cy="205.03" r="1.18"/><circle class="cls-10" cx="190.64" cy="205.53" r="1.36"/><circle class="cls-11" cx="198.9" cy="206.03" r="1.54"/><circle class="cls-12" cx="207.16" cy="206.53" r="1.72"/><circle class="cls-13" cx="215.43" cy="207.04" r="1.91"/><circle class="cls-14" cx="223.69" cy="207.54" r="2.09"/><circle class="cls-15" cx="231.95" cy="208.04" r="2.27"/><circle class="cls-16" cx="240.21" cy="208.55" r="2.45"/><circle class="cls-17" cx="248.47" cy="209.05" r="2.64"/><circle class="cls-18" cx="256.73" cy="209.55" r="2.82"/><circle class="cls-19" cx="265" cy="210.06" r="3"/><circle class="cls-20" cx="273.26" cy="210.56" r="3.18"/><circle class="cls-21" cx="162.37" cy="88.43" r="0.63"/><circle class="cls-21" cx="162.06" cy="96.66" r="0.81"/><circle class="cls-21" cx="161.76" cy="104.89" r="0.99"/><circle class="cls-21" cx="161.45" cy="113.13" r="1.18"/><circle class="cls-21" cx="161.15" cy="121.36" r="1.36"/><circle class="cls-21" cx="160.84" cy="129.59" r="1.54"/><circle class="cls-21" cx="160.53" cy="137.83" r="1.72"/><circle class="cls-21" cx="160.23" cy="146.06" r="1.91"/><circle class="cls-21" cx="159.92" cy="154.29" r="2.09"/><circle class="cls-21" cx="159.62" cy="162.53" r="2.27"/><circle class="cls-21" cx="159.31" cy="170.76" r="2.45"/><circle class="cls-21" cx="159" cy="178.99" r="2.64"/><circle class="cls-21" cx="158.7" cy="187.23" r="2.82"/><circle class="cls-21" cx="158.39" cy="195.46" r="3"/><circle class="cls-21" cx="158.09" cy="203.7" r="3.18"/><circle class="cls-22" cx="280.19" cy="92.81" r="0.63"/><circle class="cls-22" cx="271.96" cy="92.5" r="0.81"/><circle class="cls-22" cx="263.72" cy="92.2" r="0.99"/><circle class="cls-22" cx="255.49" cy="91.89" r="1.18"/><circle class="cls-22" cx="247.26" cy="91.58" r="1.36"/><circle class="cls-22" cx="239.02" cy="91.28" r="1.54"/><circle class="cls-22" cx="230.79" cy="90.97" r="1.72"/><circle class="cls-22" cx="222.56" cy="90.66" r="1.91"/><circle class="cls-22" cx="214.32" cy="90.36" r="2.09"/><circle class="cls-22" cx="206.09" cy="90.05" r="2.27"/><circle class="cls-22" cx="197.86" cy="89.75" r="2.45"/><circle class="cls-22" cx="189.62" cy="89.44" r="2.64"/><circle class="cls-22" cx="181.39" cy="89.13" r="2.82"/><circle class="cls-22" cx="173.16" cy="88.83" r="3"/><circle class="cls-22" cx="164.92" cy="88.52" r="3.18"/><circle class="cls-23" cx="275.81" cy="210.63" r="0.63"/><circle class="cls-23" cx="276.12" cy="202.39" r="0.81"/><circle class="cls-23" cx="276.42" cy="194.16" r="0.99"/><circle class="cls-23" cx="276.73" cy="185.93" r="1.18"/><circle class="cls-23" cx="277.04" cy="177.69" r="1.36"/><circle class="cls-23" cx="277.34" cy="169.46" r="1.54"/><circle class="cls-23" cx="277.65" cy="161.23" r="1.72"/><circle class="cls-24" cx="277.95" cy="152.99" r="1.91"/><circle class="cls-24" cx="278.26" cy="144.76" r="2.09"/><circle class="cls-24" cx="278.57" cy="136.53" r="2.27"/><circle class="cls-24" cx="278.87" cy="128.29" r="2.45"/><circle class="cls-24" cx="279.18" cy="120.06" r="2.64"/><circle class="cls-24" cx="279.48" cy="111.83" r="2.82"/><circle class="cls-24" cx="279.79" cy="103.59" r="3"/><circle class="cls-24" cx="280.1" cy="95.36" r="3.18"/><circle class="cls-6" cx="144.31" cy="203.03" r="0.71"/><circle class="cls-7" cx="153.49" cy="204.51" r="0.91"/><circle class="cls-8" cx="162.67" cy="205.99" r="1.12"/><circle class="cls-9" cx="171.85" cy="207.48" r="1.32"/><circle class="cls-10" cx="181.03" cy="208.96" r="1.53"/><circle class="cls-11" cx="190.21" cy="210.45" r="1.73"/><circle class="cls-12" cx="199.39" cy="211.93" r="1.94"/><circle class="cls-13" cx="208.57" cy="213.42" r="2.14"/><circle class="cls-14" cx="217.76" cy="214.9" r="2.35"/><circle class="cls-15" cx="226.94" cy="216.39" r="2.55"/><circle class="cls-16" cx="236.12" cy="217.87" r="2.76"/><circle class="cls-17" cx="245.3" cy="219.35" r="2.96"/><circle class="cls-18" cx="254.48" cy="220.84" r="3.17"/><circle class="cls-19" cx="263.66" cy="222.32" r="3.37"/><circle class="cls-20" cx="272.84" cy="223.81" r="3.58"/><circle class="cls-21" cx="162.49" cy="74.89" r="0.71"/><circle class="cls-21" cx="161.23" cy="84.06" r="0.91"/><circle class="cls-21" cx="159.97" cy="93.23" r="1.12"/><circle class="cls-21" cx="158.71" cy="102.4" r="1.32"/><circle class="cls-21" cx="157.45" cy="111.57" r="1.53"/><circle class="cls-21" cx="156.19" cy="120.74" r="1.73"/><circle class="cls-21" cx="154.93" cy="129.91" r="1.94"/><circle class="cls-21" cx="153.67" cy="139.08" r="2.14"/><circle class="cls-21" cx="152.41" cy="148.25" r="2.35"/><circle class="cls-21" cx="151.14" cy="157.43" r="2.55"/><circle class="cls-21" cx="149.88" cy="166.6" r="2.76"/><circle class="cls-21" cx="148.62" cy="175.77" r="2.96"/><circle class="cls-21" cx="147.36" cy="184.94" r="3.17"/><circle class="cls-21" cx="146.1" cy="194.11" r="3.37"/><circle class="cls-21" cx="144.84" cy="203.28" r="3.58"/><circle class="cls-22" cx="293.73" cy="92.93" r="0.71"/><circle class="cls-22" cx="284.56" cy="91.67" r="0.91"/><circle class="cls-22" cx="275.39" cy="90.41" r="1.12"/><circle class="cls-22" cx="266.22" cy="89.15" r="1.32"/><circle class="cls-22" cx="257.05" cy="87.89" r="1.53"/><circle class="cls-22" cx="247.88" cy="86.63" r="1.73"/><circle class="cls-22" cx="238.71" cy="85.36" r="1.94"/><circle class="cls-22" cx="229.53" cy="84.1" r="2.14"/><circle class="cls-22" cx="220.36" cy="82.84" r="2.35"/><circle class="cls-22" cx="211.19" cy="81.58" r="2.55"/><circle class="cls-22" cx="202.02" cy="80.32" r="2.76"/><circle class="cls-22" cx="192.85" cy="79.06" r="2.96"/><circle class="cls-22" cx="183.68" cy="77.8" r="3.17"/><circle class="cls-22" cx="174.51" cy="76.54" r="3.37"/><circle class="cls-22" cx="165.34" cy="75.28" r="3.58"/><circle class="cls-23" cx="275.69" cy="224.17" r="0.71"/><circle class="cls-23" cx="276.95" cy="215" r="0.91"/><circle class="cls-23" cx="278.21" cy="205.83" r="1.12"/><circle class="cls-23" cx="279.47" cy="196.66" r="1.32"/><circle class="cls-23" cx="280.73" cy="187.48" r="1.53"/><circle class="cls-23" cx="281.99" cy="178.31" r="1.73"/><circle class="cls-23" cx="283.25" cy="169.14" r="1.94"/><circle class="cls-24" cx="284.51" cy="159.97" r="2.14"/><circle class="cls-24" cx="285.78" cy="150.8" r="2.35"/><circle class="cls-24" cx="287.04" cy="141.63" r="2.55"/><circle class="cls-24" cx="288.3" cy="132.46" r="2.76"/><circle class="cls-24" cx="289.56" cy="123.29" r="2.96"/><circle class="cls-24" cx="290.82" cy="114.12" r="3.17"/><circle class="cls-24" cx="292.08" cy="104.94" r="3.37"/><circle class="cls-24" cx="293.34" cy="95.77" r="3.58"/><circle class="cls-6" cx="129.51" cy="201" r="0.8"/><circle class="cls-7" cx="139.61" cy="203.68" r="1.03"/><circle class="cls-8" cx="149.71" cy="206.36" r="1.26"/><circle class="cls-9" cx="159.81" cy="209.05" r="1.49"/><circle class="cls-10" cx="169.91" cy="211.73" r="1.72"/><circle class="cls-11" cx="180.01" cy="214.42" r="1.95"/><circle class="cls-12" cx="190.1" cy="217.1" r="2.18"/><circle class="cls-13" cx="200.2" cy="219.78" r="2.41"/><circle class="cls-14" cx="210.3" cy="222.47" r="2.64"/><circle class="cls-15" cx="220.4" cy="225.15" r="2.87"/><circle class="cls-16" cx="230.5" cy="227.84" r="3.1"/><circle class="cls-17" cx="240.6" cy="230.52" r="3.33"/><circle class="cls-18" cx="250.7" cy="233.21" r="3.56"/><circle class="cls-19" cx="260.8" cy="235.89" r="3.79"/><circle class="cls-20" cx="270.9" cy="238.57" r="4.02"/><circle class="cls-21" cx="164.14" cy="59.76" r="0.8"/><circle class="cls-21" cx="161.71" cy="69.87" r="1.03"/><circle class="cls-21" cx="159.28" cy="79.98" r="1.26"/><circle class="cls-21" cx="156.84" cy="90.1" r="1.49"/><circle class="cls-21" cx="154.41" cy="100.21" r="1.72"/><circle class="cls-21" cx="151.98" cy="110.32" r="1.95"/><circle class="cls-21" cx="149.54" cy="120.44" r="2.18"/><circle class="cls-21" cx="147.11" cy="130.55" r="2.41"/><circle class="cls-21" cx="144.68" cy="140.66" r="2.64"/><circle class="cls-21" cx="142.24" cy="150.78" r="2.87"/><circle class="cls-21" cx="139.81" cy="160.89" r="3.1"/><circle class="cls-21" cx="137.38" cy="171" r="3.33"/><circle class="cls-21" cx="134.94" cy="181.11" r="3.56"/><circle class="cls-21" cx="132.51" cy="191.23" r="3.79"/><circle class="cls-21" cx="130.08" cy="201.34" r="4.02"/><circle class="cls-22" cx="308.86" cy="94.58" r="0.8"/><circle class="cls-22" cx="298.75" cy="92.15" r="1.03"/><circle class="cls-22" cx="288.63" cy="89.71" r="1.26"/><circle class="cls-22" cx="278.52" cy="87.28" r="1.49"/><circle class="cls-22" cx="268.41" cy="84.85" r="1.72"/><circle class="cls-22" cx="258.29" cy="82.41" r="1.95"/><circle class="cls-22" cx="248.18" cy="79.98" r="2.18"/><circle class="cls-22" cx="238.07" cy="77.55" r="2.41"/><circle class="cls-22" cx="227.96" cy="75.11" r="2.64"/><circle class="cls-22" cx="217.84" cy="72.68" r="2.87"/><circle class="cls-22" cx="207.73" cy="70.25" r="3.1"/><circle class="cls-22" cx="197.62" cy="67.81" r="3.33"/><circle class="cls-22" cx="187.5" cy="65.38" r="3.56"/><circle class="cls-22" cx="177.39" cy="62.95" r="3.79"/><circle class="cls-22" cx="167.28" cy="60.51" r="4.02"/><circle class="cls-23" cx="274.04" cy="239.3" r="0.8"/><circle class="cls-23" cx="276.47" cy="229.18" r="1.03"/><circle class="cls-23" cx="278.91" cy="219.07" r="1.26"/><circle class="cls-23" cx="281.34" cy="208.96" r="1.49"/><circle class="cls-23" cx="283.77" cy="198.84" r="1.72"/><circle class="cls-23" cx="286.21" cy="188.73" r="1.95"/><circle class="cls-23" cx="288.64" cy="178.62" r="2.18"/><circle class="cls-24" cx="291.07" cy="168.51" r="2.41"/><circle class="cls-24" cx="293.51" cy="158.39" r="2.64"/><circle class="cls-24" cx="295.94" cy="148.28" r="2.87"/><circle class="cls-24" cx="298.37" cy="138.17" r="3.1"/><circle class="cls-24" cx="300.8" cy="128.05" r="3.33"/><circle class="cls-24" cx="303.24" cy="117.94" r="3.56"/><circle class="cls-24" cx="305.67" cy="107.83" r="3.79"/><circle class="cls-24" cx="308.1" cy="97.71" r="4.02"/><circle class="cls-6" cx="113.19" cy="197.07" r="0.89"/><circle class="cls-7" cx="124.19" cy="201.2" r="1.15"/><circle class="cls-8" cx="135.18" cy="205.33" r="1.41"/><circle class="cls-9" cx="146.17" cy="209.46" r="1.67"/><circle class="cls-10" cx="157.16" cy="213.59" r="1.93"/><circle class="cls-11" cx="168.15" cy="217.71" r="2.19"/><circle class="cls-12" cx="179.14" cy="221.84" r="2.45"/><circle class="cls-13" cx="190.13" cy="225.97" r="2.71"/><circle class="cls-14" cx="201.13" cy="230.1" r="2.96"/><circle class="cls-15" cx="212.12" cy="234.23" r="3.22"/><circle class="cls-16" cx="223.11" cy="238.35" r="3.48"/><circle class="cls-17" cx="234.1" cy="242.48" r="3.74"/><circle class="cls-18" cx="245.09" cy="246.61" r="4"/><circle class="cls-19" cx="256.08" cy="250.74" r="4.26"/><circle class="cls-20" cx="267.07" cy="254.87" r="4.52"/><circle class="cls-21" cx="167.67" cy="43.03" r="0.89"/><circle class="cls-21" cx="163.82" cy="54.07" r="1.15"/><circle class="cls-21" cx="159.98" cy="65.1" r="1.41"/><circle class="cls-21" cx="156.13" cy="76.14" r="1.67"/><circle class="cls-21" cx="152.28" cy="87.17" r="1.93"/><circle class="cls-21" cx="148.43" cy="98.21" r="2.19"/><circle class="cls-21" cx="144.58" cy="109.24" r="2.45"/><circle class="cls-21" cx="140.73" cy="120.28" r="2.71"/><circle class="cls-21" cx="136.88" cy="131.31" r="2.96"/><circle class="cls-21" cx="133.03" cy="142.35" r="3.22"/><circle class="cls-21" cx="129.18" cy="153.38" r="3.48"/><circle class="cls-21" cx="125.33" cy="164.42" r="3.74"/><circle class="cls-21" cx="121.49" cy="175.45" r="4"/><circle class="cls-21" cx="117.64" cy="186.49" r="4.26"/><circle class="cls-21" cx="113.79" cy="197.52" r="4.52"/><circle class="cls-22" cx="325.59" cy="98.11" r="0.89"/><circle class="cls-22" cx="314.55" cy="94.26" r="1.15"/><circle class="cls-22" cx="303.52" cy="90.41" r="1.41"/><circle class="cls-22" cx="292.48" cy="86.56" r="1.67"/><circle class="cls-22" cx="281.45" cy="82.71" r="1.93"/><circle class="cls-22" cx="270.41" cy="78.87" r="2.19"/><circle class="cls-22" cx="259.38" cy="75.02" r="2.45"/><circle class="cls-22" cx="248.34" cy="71.17" r="2.71"/><circle class="cls-22" cx="237.31" cy="67.32" r="2.96"/><circle class="cls-22" cx="226.27" cy="63.47" r="3.22"/><circle class="cls-22" cx="215.24" cy="59.62" r="3.48"/><circle class="cls-22" cx="204.2" cy="55.77" r="3.74"/><circle class="cls-22" cx="193.17" cy="51.92" r="4"/><circle class="cls-22" cx="182.13" cy="48.07" r="4.26"/><circle class="cls-22" cx="171.1" cy="44.22" r="4.52"/><circle class="cls-23" cx="270.51" cy="256.02" r="0.89"/><circle class="cls-23" cx="274.36" cy="244.99" r="1.15"/><circle class="cls-23" cx="278.21" cy="233.95" r="1.41"/><circle class="cls-23" cx="282.05" cy="222.92" r="1.67"/><circle class="cls-23" cx="285.9" cy="211.88" r="1.93"/><circle class="cls-23" cx="289.75" cy="200.85" r="2.19"/><circle class="cls-23" cx="293.6" cy="189.81" r="2.45"/><circle class="cls-24" cx="297.45" cy="178.78" r="2.71"/><circle class="cls-24" cx="301.3" cy="167.74" r="2.96"/><circle class="cls-24" cx="305.15" cy="156.71" r="3.22"/><circle class="cls-24" cx="309" cy="145.67" r="3.48"/><circle class="cls-24" cx="312.85" cy="134.64" r="3.74"/><circle class="cls-24" cx="316.7" cy="123.6" r="4"/><circle class="cls-24" cx="320.54" cy="112.57" r="4.26"/><circle class="cls-24" cx="324.39" cy="101.53" r="4.52"/><circle class="cls-6" cx="95.39" cy="190.87" r="1"/><circle class="cls-7" cx="107.22" cy="196.71" r="1.29"/><circle class="cls-8" cx="119.04" cy="202.55" r="1.59"/><circle class="cls-9" cx="130.87" cy="208.39" r="1.88"/><circle class="cls-10" cx="142.7" cy="214.24" r="2.17"/><circle class="cls-11" cx="154.53" cy="220.08" r="2.46"/><circle class="cls-12" cx="166.36" cy="225.92" r="2.75"/><circle class="cls-13" cx="178.19" cy="231.76" r="3.04"/><circle class="cls-14" cx="190.01" cy="237.6" r="3.33"/><circle class="cls-15" cx="201.84" cy="243.45" r="3.62"/><circle class="cls-16" cx="213.67" cy="249.29" r="3.91"/><circle class="cls-17" cx="225.5" cy="255.13" r="4.2"/><circle class="cls-18" cx="237.33" cy="260.97" r="4.49"/><circle class="cls-19" cx="249.15" cy="266.81" r="4.78"/><circle class="cls-20" cx="260.98" cy="272.65" r="5.08"/><circle class="cls-21" cx="173.49" cy="24.72" r="1"/><circle class="cls-21" cx="167.95" cy="36.63" r="1.29"/><circle class="cls-21" cx="162.42" cy="48.54" r="1.59"/><circle class="cls-21" cx="156.88" cy="60.45" r="1.88"/><circle class="cls-21" cx="151.35" cy="72.35" r="2.17"/><circle class="cls-21" cx="145.81" cy="84.26" r="2.46"/><circle class="cls-21" cx="140.28" cy="96.17" r="2.75"/><circle class="cls-21" cx="134.75" cy="108.08" r="3.04"/><circle class="cls-21" cx="129.21" cy="119.99" r="3.33"/><circle class="cls-21" cx="123.68" cy="131.9" r="3.62"/><circle class="cls-21" cx="118.14" cy="143.8" r="3.91"/><circle class="cls-21" cx="112.61" cy="155.71" r="4.2"/><circle class="cls-21" cx="107.07" cy="167.62" r="4.49"/><circle class="cls-21" cx="101.54" cy="179.53" r="4.78"/><circle class="cls-21" cx="96" cy="191.44" r="5.08"/><circle class="cls-22" cx="343.9" cy="103.93" r="1"/><circle class="cls-22" cx="331.99" cy="98.39" r="1.29"/><circle class="cls-22" cx="320.08" cy="92.86" r="1.59"/><circle class="cls-22" cx="308.17" cy="87.32" r="1.88"/><circle class="cls-22" cx="296.26" cy="81.79" r="2.17"/><circle class="cls-22" cx="284.36" cy="76.25" r="2.46"/><circle class="cls-22" cx="272.45" cy="70.72" r="2.75"/><circle class="cls-22" cx="260.54" cy="65.18" r="3.04"/><circle class="cls-22" cx="248.63" cy="59.65" r="3.33"/><circle class="cls-22" cx="236.72" cy="54.11" r="3.62"/><circle class="cls-22" cx="224.81" cy="48.58" r="3.91"/><circle class="cls-22" cx="212.91" cy="43.04" r="4.2"/><circle class="cls-22" cx="201" cy="37.51" r="4.49"/><circle class="cls-22" cx="189.09" cy="31.97" r="4.78"/><circle class="cls-22" cx="177.18" cy="26.44" r="5.08"/><circle class="cls-23" cx="264.69" cy="274.33" r="1"/><circle class="cls-23" cx="270.23" cy="262.42" r="1.29"/><circle class="cls-23" cx="275.76" cy="250.52" r="1.59"/><circle class="cls-23" cx="281.3" cy="238.61" r="1.88"/><circle class="cls-23" cx="286.83" cy="226.7" r="2.17"/><circle class="cls-23" cx="292.37" cy="214.79" r="2.46"/><circle class="cls-23" cx="297.9" cy="202.88" r="2.75"/><circle class="cls-24" cx="303.44" cy="190.98" r="3.04"/><circle class="cls-24" cx="308.97" cy="179.07" r="3.33"/><circle class="cls-24" cx="314.51" cy="167.16" r="3.62"/><circle class="cls-24" cx="320.04" cy="155.25" r="3.91"/><circle class="cls-24" cx="325.58" cy="143.34" r="4.2"/><circle class="cls-24" cx="331.11" cy="131.43" r="4.49"/><circle class="cls-24" cx="336.65" cy="119.53" r="4.78"/><circle class="cls-24" cx="342.18" cy="107.62" r="5.08"/><circle class="cls-6" cx="76.17" cy="181.94" r="1.13"/><circle class="cls-7" cx="88.75" cy="189.8" r="1.45"/><circle class="cls-8" cx="101.32" cy="197.65" r="1.78"/><circle class="cls-9" cx="113.89" cy="205.5" r="2.11"/><circle class="cls-10" cx="126.46" cy="213.35" r="2.44"/><circle class="cls-11" cx="139.03" cy="221.2" r="2.76"/><circle class="cls-12" cx="151.61" cy="229.05" r="3.09"/><circle class="cls-13" cx="164.18" cy="236.9" r="3.42"/><circle class="cls-14" cx="176.75" cy="244.76" r="3.74"/><circle class="cls-15" cx="189.32" cy="252.61" r="4.07"/><circle class="cls-16" cx="201.9" cy="260.46" r="4.4"/><circle class="cls-17" cx="214.47" cy="268.31" r="4.72"/><circle class="cls-18" cx="227.04" cy="276.16" r="5.05"/><circle class="cls-19" cx="239.61" cy="284.01" r="5.38"/><circle class="cls-20" cx="252.19" cy="291.86" r="5.7"/><circle class="cls-21" cx="182.03" cy="4.9" r="1.13"/><circle class="cls-21" cx="174.52" cy="17.6" r="1.45"/><circle class="cls-21" cx="167" cy="30.29" r="1.78"/><circle class="cls-21" cx="159.48" cy="42.99" r="2.11"/><circle class="cls-21" cx="151.97" cy="55.69" r="2.44"/><circle class="cls-21" cx="144.45" cy="68.38" r="2.76"/><circle class="cls-21" cx="136.93" cy="81.08" r="3.09"/><circle class="cls-21" cx="129.41" cy="93.77" r="3.42"/><circle class="cls-21" cx="121.9" cy="106.47" r="3.74"/><circle class="cls-21" cx="114.38" cy="119.17" r="4.07"/><circle class="cls-21" cx="106.86" cy="131.86" r="4.4"/><circle class="cls-21" cx="99.35" cy="144.56" r="4.72"/><circle class="cls-21" cx="91.83" cy="157.25" r="5.05"/><circle class="cls-21" cx="84.31" cy="169.95" r="5.38"/><circle class="cls-21" cx="76.79" cy="182.65" r="5.7"/><circle class="cls-22" cx="363.72" cy="112.47" r="1.13"/><circle class="cls-22" cx="351.02" cy="104.95" r="1.45"/><circle class="cls-22" cx="338.32" cy="97.44" r="1.78"/><circle class="cls-22" cx="325.63" cy="89.92" r="2.11"/><circle class="cls-22" cx="312.93" cy="82.4" r="2.44"/><circle class="cls-22" cx="300.24" cy="74.89" r="2.76"/><circle class="cls-22" cx="287.54" cy="67.37" r="3.09"/><circle class="cls-22" cx="274.84" cy="59.85" r="3.42"/><circle class="cls-22" cx="262.15" cy="52.33" r="3.74"/><circle class="cls-22" cx="249.45" cy="44.82" r="4.07"/><circle class="cls-22" cx="236.76" cy="37.3" r="4.4"/><circle class="cls-22" cx="224.06" cy="29.78" r="4.72"/><circle class="cls-22" cx="211.36" cy="22.27" r="5.05"/><circle class="cls-22" cx="198.67" cy="14.75" r="5.38"/><circle class="cls-22" cx="185.97" cy="7.23" r="5.7"/><circle class="cls-23" cx="256.15" cy="294.15" r="1.13"/><circle class="cls-23" cx="263.66" cy="281.46" r="1.45"/><circle class="cls-23" cx="271.18" cy="268.76" r="1.78"/><circle class="cls-23" cx="278.7" cy="256.07" r="2.11"/><circle class="cls-23" cx="286.22" cy="243.37" r="2.44"/><circle class="cls-23" cx="293.73" cy="230.67" r="2.76"/><circle class="cls-23" cx="301.25" cy="217.98" r="3.09"/><circle class="cls-24" cx="308.77" cy="205.28" r="3.42"/><circle class="cls-24" cx="316.28" cy="192.58" r="3.74"/><circle class="cls-24" cx="323.8" cy="179.89" r="4.07"/><circle class="cls-24" cx="331.32" cy="167.19" r="4.4"/><circle class="cls-24" cx="338.83" cy="154.5" r="4.72"/><circle class="cls-24" cx="346.35" cy="141.8" r="5.05"/><circle class="cls-24" cx="353.87" cy="129.1" r="5.38"/><circle class="cls-24" cx="361.39" cy="116.41" r="5.7"/><circle class="cls-6" cx="55.69" cy="169.82" r="1.27"/><circle class="cls-7" cx="68.87" cy="180" r="1.63"/><circle class="cls-8" cx="82.05" cy="190.18" r="2"/><circle class="cls-9" cx="95.23" cy="200.37" r="2.37"/><circle class="cls-10" cx="108.41" cy="210.55" r="2.74"/><circle class="cls-11" cx="121.59" cy="220.73" r="3.1"/><circle class="cls-12" cx="134.77" cy="230.91" r="3.47"/><circle class="cls-13" cx="147.95" cy="241.09" r="3.84"/><circle class="cls-14" cx="161.13" cy="251.27" r="4.2"/><circle class="cls-15" cx="174.31" cy="261.45" r="4.57"/><circle class="cls-16" cx="187.49" cy="271.63" r="4.94"/><circle class="cls-17" cx="200.67" cy="281.81" r="5.31"/><circle class="cls-18" cx="213.85" cy="292" r="5.67"/><circle class="cls-19" cx="227.03" cy="302.18" r="6.04"/><circle class="cls-20" cx="240.21" cy="312.36" r="6.41"/><circle class="cls-21" cx="174.16" cy="10.41" r="2"/><circle class="cls-21" cx="164.34" cy="23.76" r="2.37"/><circle class="cls-21" cx="154.51" cy="37.12" r="2.74"/><circle class="cls-21" cx="144.69" cy="50.47" r="3.1"/><circle class="cls-21" cx="134.87" cy="63.83" r="3.47"/><circle class="cls-21" cx="125.05" cy="77.19" r="3.84"/><circle class="cls-21" cx="115.23" cy="90.54" r="4.2"/><circle class="cls-21" cx="105.41" cy="103.9" r="4.57"/><circle class="cls-21" cx="95.59" cy="117.25" r="4.94"/><circle class="cls-21" cx="85.77" cy="130.61" r="5.31"/><circle class="cls-21" cx="75.94" cy="143.96" r="5.67"/><circle class="cls-21" cx="66.12" cy="157.32" r="6.04"/><circle class="cls-21" cx="56.3" cy="170.68" r="6.41"/><circle class="cls-22" cx="384.92" cy="124.24" r="1.27"/><circle class="cls-22" cx="371.57" cy="114.41" r="1.63"/><circle class="cls-22" cx="358.21" cy="104.59" r="2"/><circle class="cls-22" cx="344.86" cy="94.77" r="2.37"/><circle class="cls-22" cx="331.5" cy="84.95" r="2.74"/><circle class="cls-22" cx="318.14" cy="75.13" r="3.1"/><circle class="cls-22" cx="304.79" cy="65.31" r="3.47"/><circle class="cls-22" cx="291.43" cy="55.49" r="3.84"/><circle class="cls-22" cx="278.08" cy="45.67" r="4.2"/><circle class="cls-22" cx="264.72" cy="35.84" r="4.57"/><circle class="cls-22" cx="251.36" cy="26.02" r="4.94"/><circle class="cls-22" cx="238.01" cy="16.2" r="5.31"/><circle class="cls-22" cx="224.65" cy="6.38" r="5.67"/><circle class="cls-22" cx="211.3" cy="-3.44" r="6.04"/><circle class="cls-23" cx="244.38" cy="315.36" r="1.27"/><circle class="cls-23" cx="254.2" cy="302" r="1.63"/><circle class="cls-23" cx="264.02" cy="288.65" r="2"/><circle class="cls-23" cx="273.84" cy="275.29" r="2.37"/><circle class="cls-23" cx="283.67" cy="261.94" r="2.74"/><circle class="cls-23" cx="293.49" cy="248.58" r="3.1"/><circle class="cls-23" cx="303.31" cy="235.22" r="3.47"/><circle class="cls-24" cx="313.13" cy="221.87" r="3.84"/><circle class="cls-24" cx="322.95" cy="208.51" r="4.2"/><circle class="cls-24" cx="332.77" cy="195.16" r="4.57"/><circle class="cls-24" cx="342.59" cy="181.8" r="4.94"/><circle class="cls-24" cx="352.42" cy="168.45" r="5.31"/><circle class="cls-24" cx="362.24" cy="155.09" r="5.67"/><circle class="cls-24" cx="372.06" cy="141.73" r="6.04"/><circle class="cls-24" cx="381.88" cy="128.38" r="6.41"/><circle class="cls-6" cx="34.13" cy="153.98" r="1.42"/><circle class="cls-7" cx="47.73" cy="166.84" r="1.84"/><circle class="cls-8" cx="61.33" cy="179.69" r="2.25"/><circle class="cls-9" cx="74.93" cy="192.54" r="2.66"/><circle class="cls-10" cx="88.53" cy="205.4" r="3.07"/><circle class="cls-11" cx="102.13" cy="218.25" r="3.49"/><circle class="cls-12" cx="115.73" cy="231.1" r="3.9"/><circle class="cls-13" cx="129.33" cy="243.96" r="4.31"/><circle class="cls-14" cx="142.93" cy="256.81" r="4.72"/><circle class="cls-15" cx="156.53" cy="269.67" r="5.14"/><circle class="cls-16" cx="170.13" cy="282.52" r="5.55"/><circle class="cls-17" cx="183.73" cy="295.37" r="5.96"/><circle class="cls-18" cx="197.33" cy="308.23" r="6.37"/><circle class="cls-19" cx="210.93" cy="321.08" r="6.79"/><circle class="cls-20" cx="224.53" cy="333.94" r="7.2"/><circle class="cls-21" cx="171.91" cy="2.81" r="2.66"/><circle class="cls-21" cx="159.44" cy="16.64" r="3.07"/><circle class="cls-21" cx="146.97" cy="30.48" r="3.49"/><circle class="cls-21" cx="134.49" cy="44.31" r="3.9"/><circle class="cls-21" cx="122.02" cy="58.15" r="4.31"/><circle class="cls-21" cx="109.55" cy="71.99" r="4.72"/><circle class="cls-21" cx="97.08" cy="85.82" r="5.14"/><circle class="cls-21" cx="84.61" cy="99.66" r="5.55"/><circle class="cls-21" cx="72.14" cy="113.5" r="5.96"/><circle class="cls-21" cx="59.67" cy="127.33" r="6.37"/><circle class="cls-21" cx="47.2" cy="141.17" r="6.79"/><circle class="cls-21" cx="34.73" cy="155.01" r="7.2"/><circle class="cls-22" cx="407.32" cy="139.76" r="1.42"/><circle class="cls-22" cx="393.48" cy="127.29" r="1.84"/><circle class="cls-22" cx="379.65" cy="114.81" r="2.25"/><circle class="cls-22" cx="365.81" cy="102.34" r="2.66"/><circle class="cls-22" cx="351.98" cy="89.87" r="3.07"/><circle class="cls-22" cx="338.14" cy="77.4" r="3.49"/><circle class="cls-22" cx="324.3" cy="64.93" r="3.9"/><circle class="cls-22" cx="310.47" cy="52.46" r="4.31"/><circle class="cls-22" cx="296.63" cy="39.99" r="4.72"/><circle class="cls-22" cx="282.79" cy="27.52" r="5.14"/><circle class="cls-22" cx="268.96" cy="15.05" r="5.55"/><circle class="cls-22" cx="255.12" cy="2.58" r="5.96"/><circle class="cls-23" cx="228.86" cy="337.76" r="1.42"/><circle class="cls-23" cx="241.33" cy="323.92" r="1.84"/><circle class="cls-23" cx="253.8" cy="310.08" r="2.25"/><circle class="cls-23" cx="266.27" cy="296.25" r="2.66"/><circle class="cls-23" cx="278.74" cy="282.41" r="3.07"/><circle class="cls-23" cx="291.22" cy="268.58" r="3.49"/><circle class="cls-23" cx="303.69" cy="254.74" r="3.9"/><circle class="cls-24" cx="316.16" cy="240.9" r="4.31"/><circle class="cls-24" cx="328.63" cy="227.07" r="4.72"/><circle class="cls-24" cx="341.1" cy="213.23" r="5.14"/><circle class="cls-24" cx="353.57" cy="199.39" r="5.55"/><circle class="cls-24" cx="366.04" cy="185.56" r="5.96"/><circle class="cls-24" cx="378.51" cy="171.72" r="6.37"/><circle class="cls-24" cx="390.98" cy="157.88" r="6.79"/><circle class="cls-24" cx="403.45" cy="144.05" r="7.2"/><circle class="cls-6" cx="11.8" cy="133.87" r="1.6"/><circle class="cls-7" cx="25.57" cy="149.76" r="2.06"/><circle class="cls-8" cx="39.34" cy="165.65" r="2.53"/><circle class="cls-9" cx="53.11" cy="181.53" r="2.99"/><circle class="cls-10" cx="66.89" cy="197.42" r="3.45"/><circle class="cls-11" cx="80.66" cy="213.31" r="3.92"/><circle class="cls-12" cx="94.43" cy="229.2" r="4.38"/><circle class="cls-13" cx="108.2" cy="245.09" r="4.84"/><circle class="cls-14" cx="121.97" cy="260.98" r="5.31"/><circle class="cls-15" cx="135.74" cy="276.87" r="5.77"/><circle class="cls-16" cx="149.51" cy="292.75" r="6.24"/><circle class="cls-17" cx="163.28" cy="308.64" r="6.7"/><circle class="cls-18" cx="177.05" cy="324.53" r="7.16"/><circle class="cls-19" cx="190.82" cy="340.42" r="7.63"/><circle class="cls-20" cx="204.59" cy="356.31" r="8.09"/><circle class="cls-21" cx="151.74" cy="8.38" r="3.92"/><circle class="cls-21" cx="136.25" cy="22.46" r="4.38"/><circle class="cls-21" cx="120.76" cy="36.53" r="4.84"/><circle class="cls-21" cx="105.28" cy="50.61" r="5.31"/><circle class="cls-21" cx="89.79" cy="64.69" r="5.77"/><circle class="cls-21" cx="74.3" cy="78.77" r="6.24"/><circle class="cls-21" cx="58.81" cy="92.85" r="6.7"/><circle class="cls-21" cx="43.33" cy="106.92" r="7.16"/><circle class="cls-21" cx="27.84" cy="121" r="7.63"/><circle class="cls-21" cx="12.35" cy="135.08" r="8.09"/><circle class="cls-22" cx="430.63" cy="159.61" r="1.6"/><circle class="cls-22" cx="416.55" cy="144.12" r="2.06"/><circle class="cls-22" cx="402.47" cy="128.63" r="2.53"/><circle class="cls-22" cx="388.4" cy="113.15" r="2.99"/><circle class="cls-22" cx="374.32" cy="97.66" r="3.45"/><circle class="cls-22" cx="360.24" cy="82.17" r="3.92"/><circle class="cls-22" cx="346.16" cy="66.69" r="4.38"/><circle class="cls-22" cx="332.08" cy="51.2" r="4.84"/><circle class="cls-22" cx="318.01" cy="35.71" r="5.31"/><circle class="cls-22" cx="303.93" cy="20.22" r="5.77"/><circle class="cls-22" cx="289.85" cy="4.74" r="6.24"/><circle class="cls-23" cx="209.01" cy="361.07" r="1.6"/><circle class="cls-23" cx="224.49" cy="346.99" r="2.06"/><circle class="cls-23" cx="239.98" cy="332.91" r="2.53"/><circle class="cls-23" cx="255.47" cy="318.83" r="2.99"/><circle class="cls-23" cx="270.96" cy="304.75" r="3.45"/><circle class="cls-23" cx="286.44" cy="290.68" r="3.92"/><circle class="cls-23" cx="301.93" cy="276.6" r="4.38"/><circle class="cls-24" cx="317.42" cy="262.52" r="4.84"/><circle class="cls-24" cx="332.91" cy="248.44" r="5.31"/><circle class="cls-24" cx="348.39" cy="234.36" r="5.77"/><circle class="cls-24" cx="363.88" cy="220.29" r="6.24"/><circle class="cls-24" cx="379.37" cy="206.21" r="6.7"/><circle class="cls-24" cx="394.85" cy="192.13" r="7.16"/><circle class="cls-24" cx="410.34" cy="178.05" r="7.63"/><circle class="cls-24" cx="425.83" cy="163.97" r="8.09"/><circle class="cls-7" cx="2.7" cy="128.19" r="2.32"/><circle class="cls-8" cx="16.33" cy="147.49" r="2.84"/><circle class="cls-9" cx="29.95" cy="166.79" r="3.36"/><circle class="cls-10" cx="43.57" cy="186.09" r="3.88"/><circle class="cls-11" cx="57.2" cy="205.39" r="4.4"/><circle class="cls-12" cx="70.82" cy="224.69" r="4.92"/><circle class="cls-13" cx="84.44" cy="243.99" r="5.44"/><circle class="cls-14" cx="98.07" cy="263.29" r="5.96"/><circle class="cls-15" cx="111.69" cy="282.6" r="6.49"/><circle class="cls-16" cx="125.31" cy="301.9" r="7.01"/><circle class="cls-17" cx="138.94" cy="321.2" r="7.53"/><circle class="cls-18" cx="152.56" cy="340.5" r="8.05"/><circle class="cls-19" cx="166.18" cy="359.8" r="8.57"/><circle class="cls-20" cx="179.81" cy="379.1" r="9.09"/><circle class="cls-21" cx="140.65" cy="-1.79" r="4.92"/><circle class="cls-21" cx="121.77" cy="12.22" r="5.44"/><circle class="cls-21" cx="102.88" cy="26.23" r="5.96"/><circle class="cls-21" cx="83.99" cy="40.25" r="6.49"/><circle class="cls-21" cx="65.11" cy="54.26" r="7.01"/><circle class="cls-21" cx="46.22" cy="68.27" r="7.53"/><circle class="cls-21" cx="27.33" cy="82.28" r="8.05"/><circle class="cls-21" cx="8.45" cy="96.29" r="8.57"/><circle class="cls-22" cx="426.45" cy="146.63" r="2.84"/><circle class="cls-22" cx="412.44" cy="127.75" r="3.36"/><circle class="cls-22" cx="398.43" cy="108.86" r="3.88"/><circle class="cls-22" cx="384.42" cy="89.97" r="4.4"/><circle class="cls-22" cx="370.41" cy="71.09" r="4.92"/><circle class="cls-22" cx="356.39" cy="52.2" r="5.44"/><circle class="cls-22" cx="342.38" cy="33.32" r="5.96"/><circle class="cls-22" cx="328.37" cy="14.43" r="6.49"/><circle class="cls-22" cx="314.36" cy="-4.46" r="7.01"/><circle class="cls-23" cx="203.1" cy="370.9" r="2.32"/><circle class="cls-23" cx="221.98" cy="356.89" r="2.84"/><circle class="cls-23" cx="240.87" cy="342.88" r="3.36"/><circle class="cls-23" cx="259.76" cy="328.87" r="3.88"/><circle class="cls-23" cx="278.64" cy="314.85" r="4.4"/><circle class="cls-23" cx="297.53" cy="300.84" r="4.92"/><circle class="cls-24" cx="316.42" cy="286.83" r="5.44"/><circle class="cls-24" cx="335.3" cy="272.82" r="5.96"/><circle class="cls-24" cx="354.19" cy="258.81" r="6.49"/><circle class="cls-24" cx="373.07" cy="244.8" r="7.01"/><circle class="cls-24" cx="391.96" cy="230.78" r="7.53"/><circle class="cls-24" cx="410.85" cy="216.77" r="8.05"/><circle class="cls-24" cx="429.73" cy="202.76" r="8.57"/><circle class="cls-9" cx="5.7" cy="147.72" r="3.78"/><circle class="cls-10" cx="18.78" cy="170.82" r="4.36"/><circle class="cls-11" cx="31.85" cy="193.92" r="4.95"/><circle class="cls-12" cx="44.93" cy="217.02" r="5.53"/><circle class="cls-13" cx="58.01" cy="240.12" r="6.12"/><circle class="cls-14" cx="71.09" cy="263.22" r="6.7"/><circle class="cls-15" cx="84.16" cy="286.32" r="7.29"/><circle class="cls-16" cx="97.24" cy="309.42" r="7.87"/><circle class="cls-17" cx="110.32" cy="332.52" r="8.46"/><circle class="cls-18" cx="123.4" cy="355.62" r="9.04"/><circle class="cls-19" cx="136.47" cy="378.72" r="9.63"/><circle class="cls-21" cx="102.92" cy="-1.29" r="6.7"/><circle class="cls-21" cx="80.24" cy="12.27" r="7.29"/><circle class="cls-21" cx="57.56" cy="25.83" r="7.87"/><circle class="cls-21" cx="34.88" cy="39.38" r="8.46"/><circle class="cls-21" cx="12.2" cy="52.94" r="9.04"/><circle class="cls-22" cx="437.69" cy="146.75" r="3.78"/><circle class="cls-22" cx="424.14" cy="124.07" r="4.36"/><circle class="cls-22" cx="410.58" cy="101.39" r="4.95"/><circle class="cls-22" cx="397.02" cy="78.72" r="5.53"/><circle class="cls-22" cx="383.46" cy="56.04" r="6.12"/><circle class="cls-22" cx="369.91" cy="33.36" r="6.7"/><circle class="cls-22" cx="356.35" cy="10.68" r="7.29"/><circle class="cls-23" cx="199.18" cy="381.69" r="3.19"/><circle class="cls-23" cx="221.86" cy="368.13" r="3.78"/><circle class="cls-23" cx="244.54" cy="354.57" r="4.36"/><circle class="cls-23" cx="267.22" cy="341.01" r="4.95"/><circle class="cls-23" cx="289.9" cy="327.46" r="5.53"/><circle class="cls-24" cx="312.58" cy="313.9" r="6.12"/><circle class="cls-24" cx="335.26" cy="300.34" r="6.7"/><circle class="cls-24" cx="357.94" cy="286.78" r="7.29"/><circle class="cls-24" cx="380.62" cy="273.23" r="7.87"/><circle class="cls-24" cx="403.3" cy="259.67" r="8.46"/><circle class="cls-24" cx="425.98" cy="246.11" r="9.04"/><circle class="cls-11" cx="4.8" cy="178.26" r="5.56"/><circle class="cls-12" cx="16.84" cy="205.55" r="6.21"/><circle class="cls-13" cx="28.88" cy="232.84" r="6.87"/><circle class="cls-14" cx="40.93" cy="260.12" r="7.53"/><circle class="cls-15" cx="52.97" cy="287.41" r="8.19"/><circle class="cls-16" cx="65.01" cy="314.69" r="8.84"/><circle class="cls-17" cx="77.06" cy="341.98" r="9.5"/><circle class="cls-18" cx="89.1" cy="369.26" r="10.16"/><circle class="cls-21" cx="52.3" cy="-6.8" r="8.84"/><circle class="cls-21" cx="25.43" cy="5.83" r="9.5"/><circle class="cls-21" cx="-1.44" cy="18.45" r="10.16"/><circle class="cls-22" cx="438.55" cy="117.08" r="5.56"/><circle class="cls-22" cx="425.93" cy="90.21" r="6.21"/><circle class="cls-22" cx="413.3" cy="63.34" r="6.87"/><circle class="cls-22" cx="400.67" cy="36.47" r="7.53"/><circle class="cls-22" cx="388.04" cy="9.6" r="8.19"/><circle class="cls-23" cx="224.67" cy="381.62" r="4.9"/><circle class="cls-23" cx="251.53" cy="368.99" r="5.56"/><circle class="cls-23" cx="278.4" cy="356.36" r="6.21"/><circle class="cls-24" cx="305.27" cy="343.73" r="6.87"/><circle class="cls-24" cx="332.14" cy="331.11" r="7.53"/><circle class="cls-24" cx="359.01" cy="318.48" r="8.19"/><circle class="cls-24" cx="385.88" cy="305.85" r="8.84"/><circle class="cls-24" cx="412.75" cy="293.23" r="9.5"/><circle class="cls-24" cx="439.62" cy="280.6" r="10.16"/><circle class="cls-13" cx="-2.86" cy="221.44" r="7.72"/><circle class="cls-14" cx="7.56" cy="253.29" r="8.46"/><circle class="cls-15" cx="17.98" cy="285.14" r="9.2"/><circle class="cls-16" cx="28.4" cy="316.99" r="9.94"/><circle class="cls-17" cx="38.82" cy="348.84" r="10.68"/><circle class="cls-18" cx="49.24" cy="380.69" r="11.42"/><circle class="cls-22" cx="434.72" cy="43.39" r="8.46"/><circle class="cls-22" cx="423.6" cy="11.94" r="9.2"/><circle class="cls-23" cx="262.32" cy="387.4" r="6.98"/><circle class="cls-24" cx="293.77" cy="376.28" r="7.72"/><circle class="cls-24" cx="325.22" cy="365.16" r="8.46"/><circle class="cls-24" cx="356.67" cy="354.04" r="9.2"/><circle class="cls-24" cx="388.12" cy="342.92" r="9.94"/><circle class="cls-24" cx="419.57" cy="331.8" r="10.68"/><circle class="cls-17" cx="-4.71" cy="352.25" r="12"/><circle class="cls-18" cx="3.39" cy="389.03" r="12.83"/><circle class="cls-24" cx="386.5" cy="384.61" r="11.17"/><circle class="cls-24" cx="422.9" cy="375.69" r="12"/></g><path class="cls-1" d="M168.9,257.91a5.87,5.87,0,0,0-1.65-2,3.76,3.76,0,0,0-2.31-.75h-5.21v17.49h5.21a3.76,3.76,0,0,0,2.31-.75,5.87,5.87,0,0,0,1.65-2,10.85,10.85,0,0,0,1-2.78,16.18,16.18,0,0,0,.32-3.21,16.46,16.46,0,0,0-.32-3.23A10.68,10.68,0,0,0,168.9,257.91Z"/><path class="cls-1" d="M98.37,255.23H92.11v5.21h6.26a2.39,2.39,0,0,0,2-.8,2.83,2.83,0,0,0,0-3.61A2.36,2.36,0,0,0,98.37,255.23Z"/><path class="cls-1" d="M343.09,255.15h-6.27v7h6.27a2.12,2.12,0,0,0,2-1.1,4.73,4.73,0,0,0,0-4.82A2.12,2.12,0,0,0,343.09,255.15Z"/><path class="cls-25" d="M107.77,266.46A11.14,11.14,0,0,0,110,264a10.53,10.53,0,0,0,1.36-3,11.35,11.35,0,0,0-.35-7.35,10.74,10.74,0,0,0-2.39-3.66,11.76,11.76,0,0,0-4-2.58,14.72,14.72,0,0,0-5.56-1H81.58v35H92.11V269.26h2.2l8.33,12.23h11.57l-9.57-13.23A11.35,11.35,0,0,0,107.77,266.46Zm-7.44-6.82a2.39,2.39,0,0,1-2,.8H92.11v-5.21h6.26a2.36,2.36,0,0,1,2,.8,2.83,2.83,0,0,1,0,3.61Z"/><polygon class="cls-25" points="117.22 281.49 144.19 281.49 144.19 272.72 127.75 272.72 127.75 268.16 142.43 268.16 142.43 259.74 127.75 259.74 127.75 255.23 144.19 255.23 144.19 246.46 117.22 246.46 117.22 281.49"/><path class="cls-25" d="M177.15,251.89a14.6,14.6,0,0,0-4.82-4,14.28,14.28,0,0,0-6.69-1.51H149.2v35h16.44a14.28,14.28,0,0,0,6.69-1.5,14.67,14.67,0,0,0,4.82-4,17.15,17.15,0,0,0,2.88-5.61,22.24,22.24,0,0,0,0-12.86A17.5,17.5,0,0,0,177.15,251.89Zm-7.27,15.27a10.85,10.85,0,0,1-1,2.78,5.87,5.87,0,0,1-1.65,2,3.76,3.76,0,0,1-2.31.75h-5.21V255.18h5.21a3.76,3.76,0,0,1,2.31.75,5.87,5.87,0,0,1,1.65,2,10.68,10.68,0,0,1,1,2.81,16.46,16.46,0,0,1,.32,3.23A16.18,16.18,0,0,1,169.88,267.16Z"/><rect class="cls-25" x="184.99" y="246.4" width="10.53" height="35.04"/><polygon class="cls-25" points="221.53 263.85 211.05 246.46 200.53 246.46 200.53 281.49 211.05 281.49 211.05 264.05 221.53 281.49 232.06 281.49 232.06 246.46 221.53 246.46 221.53 263.85"/><path class="cls-25" d="M248.6,257.45a8.67,8.67,0,0,1,2.73-2,7.9,7.9,0,0,1,3.43-.75,7.71,7.71,0,0,1,3.91,1,9.12,9.12,0,0,1,2.91,2.61l7.57-6.28a18.88,18.88,0,0,0-6.32-4.94,18.68,18.68,0,0,0-15.33-.34,18.82,18.82,0,0,0-9.95,10,18.6,18.6,0,0,0,0,14.54,18.82,18.82,0,0,0,9.95,9.95,18.73,18.73,0,0,0,15.33-.33,18.92,18.92,0,0,0,6.32-4.91l-7.57-6.32a9.12,9.12,0,0,1-2.91,2.61,7.71,7.71,0,0,1-3.91,1,7.9,7.9,0,0,1-3.43-.75,8.67,8.67,0,0,1-2.73-2,9.53,9.53,0,0,1-1.81-2.95,9.74,9.74,0,0,1-.65-3.53,10,10,0,0,1,.65-3.55A9.51,9.51,0,0,1,248.6,257.45Z"/><path class="cls-25" d="M355.67,254.15a11.52,11.52,0,0,0-6.34-6.72,13.62,13.62,0,0,0-5.54-1.05H326.3v35h10.52V270.94h7a13.62,13.62,0,0,0,5.54-1.05,11.62,11.62,0,0,0,4-2.78,11.78,11.78,0,0,0,2.38-3.94,13.11,13.11,0,0,0,0-9ZM345,261.07a2.12,2.12,0,0,1-2,1.1h-6.27v-7h6.27a2.12,2.12,0,0,1,2,1.1,4.73,4.73,0,0,1,0,4.82Z"/><path class="cls-25" d="M288.34,274.68l-.49,0a9.17,9.17,0,0,1-4-.87,10.08,10.08,0,0,1-3.16-2.35,11,11,0,0,1-2.1-3.45,11.52,11.52,0,0,1-.75-4.12,11.28,11.28,0,0,1,.75-4.09,11.06,11.06,0,0,1,2.1-3.42,10.08,10.08,0,0,1,3.16-2.35,9.17,9.17,0,0,1,4-.87l.45,0a17.8,17.8,0,0,1,2.08-2.5,19.13,19.13,0,0,1,5.31-3.71l-.58-.28a18.57,18.57,0,0,0-14.53,0,18.82,18.82,0,0,0-9.95,10,18.6,18.6,0,0,0,0,14.54,18.92,18.92,0,0,0,4,5.94,19.27,19.27,0,0,0,5.94,4,18.57,18.57,0,0,0,14.53,0l.63-.31a19.09,19.09,0,0,1-5.36-3.73A18.41,18.41,0,0,1,288.34,274.68Z"/><path class="cls-25" d="M299.61,254a7,7,0,0,1,.86-.35A7,7,0,0,0,299.61,254Z"/><path class="cls-25" d="M302.14,253.29h0Z"/><path class="cls-25" d="M301.08,253.51l.25-.07Z"/><path class="cls-25" d="M297.09,259.83l.12.33a4.3,4.3,0,1,0,8.06-3c-.07-.17-.13-.33-.21-.5a19.47,19.47,0,0,0-2-3.49h0q-.47,0-.9.09h-.06a7.23,7.23,0,0,0-.81.15l-.25.07c-.2.05-.41.11-.61.18a7,7,0,0,0-.86.35,10,10,0,0,0-3.17,2.35,10.77,10.77,0,0,0-.73.91h0A11.24,11.24,0,0,1,297.09,259.83Z"/><path class="cls-25" d="M288.3,253.22a9.1,9.1,0,0,1,3.53.84,10.12,10.12,0,0,1,3.17,2.35,10.26,10.26,0,0,1,.71.89h0a10.77,10.77,0,0,1,.73-.91,10,10,0,0,1,3.17-2.35,7,7,0,0,1,.86-.35c.2-.07.41-.13.61-.18l.25-.07a7.23,7.23,0,0,1,.81-.15h.06q.44-.06.9-.09h0a19.15,19.15,0,0,0-2.05-2.45,18.94,18.94,0,0,0-5.36-3.73,19.13,19.13,0,0,0-5.31,3.71A17.8,17.8,0,0,0,288.3,253.22Z"/><path class="cls-25" d="M301.33,253.44a7.23,7.23,0,0,1,.81-.15A7.23,7.23,0,0,0,301.33,253.44Z"/><path class="cls-25" d="M300.47,253.69c.2-.07.41-.13.61-.18C300.88,253.56,300.67,253.62,300.47,253.69Z"/><path class="cls-25" d="M302.2,253.28q.44-.06.9-.09Q302.64,253.22,302.2,253.28Z"/><path class="cls-25" d="M295.71,257.3a10.77,10.77,0,0,1,.73-.91A10.77,10.77,0,0,0,295.71,257.3Z"/><path class="cls-1" d="M301.34,274.41l-.23-.06Z"/><path class="cls-1" d="M300.47,274.16a9.11,9.11,0,0,1-.86-.35A9.11,9.11,0,0,0,300.47,274.16Z"/><polygon class="cls-1" points="303.13 274.66 303.14 274.66 303.14 274.66 303.13 274.66"/><path class="cls-1" d="M302.22,274.57h0Z"/><path class="cls-1" d="M295.71,257.3a9.32,9.32,0,0,0-.68,1.08A10.9,10.9,0,0,1,295.71,257.3Z"/><path class="cls-1" d="M294.91,258.6a10.23,10.23,0,0,0-.56,1.21A10.23,10.23,0,0,1,294.91,258.6Z"/><path class="cls-1" d="M295,258.38l-.12.22Z"/><path class="cls-1" d="M303.14,274.66l.45,0-.45,0Z"/><path class="cls-1" d="M303.59,253.17l-.49,0h0Z"/><polygon class="cls-1" points="295.71 257.3 295.71 257.3 295.71 257.3 295.71 257.3"/><path class="cls-1" d="M294.91,269.24a1.71,1.71,0,0,0,.13.23A1.71,1.71,0,0,1,294.91,269.24Z"/><path class="cls-26" d="M294.35,268a9.82,9.82,0,0,0,.56,1.23A9.82,9.82,0,0,1,294.35,268Z"/><path class="cls-26" d="M295,269.47a8.85,8.85,0,0,0,.69,1.1h0A9.65,9.65,0,0,1,295,269.47Z"/><path class="cls-26" d="M320.81,256.66a18.82,18.82,0,0,0-9.95-10,18.6,18.6,0,0,0-14.54,0l-.63.3a18.94,18.94,0,0,1,5.36,3.73,19.15,19.15,0,0,1,2.05,2.45l.49,0a9.16,9.16,0,0,1,4,.87,10,10,0,0,1,3.17,2.35,10.81,10.81,0,0,1,2.09,3.42,11,11,0,0,1,.76,4.08,11.24,11.24,0,0,1-.76,4.12,10.73,10.73,0,0,1-2.09,3.45,10,10,0,0,1-3.17,2.35,9.16,9.16,0,0,1-4,.87l-.45,0h0a9,9,0,0,1-.91-.09h0a7.34,7.34,0,0,1-.84-.16l-.23-.06c-.21-.06-.43-.11-.64-.19a9.11,9.11,0,0,1-.86-.35,10,10,0,0,1-3.17-2.35,8.65,8.65,0,0,1-.71-.89,8.85,8.85,0,0,1-.69-1.1,1.71,1.71,0,0,1-.13-.23,9.82,9.82,0,0,1-.56-1.23c-.08-.2-.15-.4-.22-.61a4.31,4.31,0,0,0-8.19,2.69c.13.37.28.74.43,1.1a19.78,19.78,0,0,0,2,3.49,18.41,18.41,0,0,0,2,2.45,19.09,19.09,0,0,0,5.36,3.73l.58.28a18.6,18.6,0,0,0,14.54,0,18.82,18.82,0,0,0,9.95-9.95,18.57,18.57,0,0,0,0-14.53Z"/><path class="cls-26" d="M301.11,274.35l-.64-.19C300.68,274.24,300.9,274.29,301.11,274.35Z"/><path class="cls-26" d="M295.73,270.57a8.65,8.65,0,0,0,.71.89,8.65,8.65,0,0,1-.71-.89Z"/><path class="cls-26" d="M303.13,274.66a9,9,0,0,1-.91-.09A9,9,0,0,0,303.13,274.66Z"/><path class="cls-26" d="M302.18,274.57a7.34,7.34,0,0,1-.84-.16A7.34,7.34,0,0,0,302.18,274.57Z"/><path class="cls-27" d="M296.2,264v0h0Z"/></svg>